<svg width="101" height="101" viewBox="0 0 101 101" fill="none" xmlns="http://www.w3.org/2000/svg">
<circle cx="50.1239" cy="50.4642" r="48.0548" fill="#2372B6" stroke="white" stroke-width="4"/>
<path d="M48.1452 23.162C48.9364 22.9239 49.6631 22.2529 50.0429 21.4686C50.8955 19.7076 50.3292 17.972 48.731 17.1983L45.505 15.6364L40.4897 25.9951L43.7601 27.5785C45.5359 28.4382 47.4104 27.8113 48.3059 25.9616C48.7573 25.0293 48.6998 23.9785 48.1452 23.162ZM47.401 19.0021C48.0817 19.3317 48.2057 19.8301 47.8689 20.5256C47.5179 21.2507 47.0208 21.485 46.4289 21.1985L45.6002 20.7972L46.6462 18.6367L47.401 19.0021ZM44.3502 25.4164L43.5511 25.0295L44.6473 22.7654L45.4908 23.1738C46.2751 23.5535 46.518 24.146 46.1526 24.9007C45.7943 25.6406 45.1789 25.8176 44.3502 25.4164ZM53.211 19.3673L48.1958 29.726L50.2971 30.7434L55.3123 20.3847L53.211 19.3673ZM54.7491 33.1546C56.806 34.1505 58.6065 33.4878 59.4304 31.786C61.0282 28.486 56.9644 26.3906 57.7525 24.7628C57.9818 24.2893 58.4507 24.1509 58.9982 24.416C59.6049 24.7098 59.7509 25.2006 59.4213 25.8813L61.5818 26.9274C62.5061 25.0184 61.9035 23.3201 59.9945 22.3959C58.0856 21.4716 56.4169 22.0885 55.6502 23.6719C54.1242 26.8239 58.0786 28.9942 57.2475 30.7108C56.9967 31.2288 56.4629 31.4635 55.7674 31.1268C55.1015 30.8044 54.8591 30.2486 55.2603 29.4199L53.0998 28.3739C52.0896 30.4604 52.7809 32.2017 54.7491 33.1546ZM65.4607 35.6189L72.0622 30.2844L72.7644 28.8342L67.1559 26.1188L66.1886 28.1166L69.2223 29.5853L62.5697 34.9499L61.889 36.3557L67.8231 39.2287L68.7903 37.231L65.4607 35.6189ZM72.2005 41.5673C74.2723 42.5704 76.1382 41.848 77.1985 39.6579L80.6017 32.6287L78.4116 31.5683L75.0084 38.5975C74.5499 39.5446 73.9292 39.8834 73.1892 39.5252C72.4493 39.1669 72.3301 38.4699 72.7887 37.5228L76.1919 30.4937L74.0018 29.4333L70.5986 36.4624C69.5382 38.6526 70.1288 40.5643 72.2005 41.5673Z" fill="white"/>
<path d="M17.934 67.6523C19.991 68.6482 21.7915 67.9855 22.6154 66.2837C24.2131 62.9837 20.1494 60.8883 20.9375 59.2605C21.1667 58.787 21.6356 58.6486 22.1831 58.9137C22.7898 59.2075 22.9358 59.6983 22.6063 60.379L24.7668 61.425C25.691 59.5161 25.0884 57.8178 23.1795 56.8935C21.2705 55.9693 19.6018 56.5862 18.8352 58.1696C17.3091 61.3216 21.2635 63.4919 20.4324 65.2085C20.1817 65.7264 19.6479 65.9612 18.9523 65.6245C18.2864 65.3021 18.044 64.7463 18.4452 63.9176L16.2847 62.8715C15.2745 64.9581 15.9659 66.6994 17.934 67.6523ZM30.5634 60.7242L27.5593 59.2698L22.5441 69.6285L24.6454 70.6459L26.2575 67.3163L27.1601 67.7534C29.3059 68.7922 31.209 68.1062 32.2765 65.9012C33.3512 63.6815 32.7091 61.7631 30.5634 60.7242ZM28.0978 65.7413L27.2247 65.3186L28.6934 62.2849L29.5665 62.7077C30.41 63.116 30.6032 63.8489 30.116 64.8552C29.636 65.8467 28.9413 66.1497 28.0978 65.7413ZM33.9174 75.135L36.0927 76.1882L38.6219 64.6258L36.3726 63.5368L28.8712 72.6919L31.0466 73.7451L32.218 72.1933L34.4081 73.2536L33.9174 75.135ZM33.5996 70.3961L34.4095 69.3269C34.9157 68.6586 35.6875 67.4796 36.1995 66.6863L36.2587 66.7149C35.9539 67.6086 35.5225 68.9524 35.2974 69.7568L34.961 71.0553L33.5996 70.3961ZM41.7033 78.9046L43.997 80.0151L43.9423 75.1479C45.1249 75.0446 46.1444 74.2595 46.825 72.8536C47.8782 70.6783 47.2809 68.8181 45.224 67.8223L42.2199 66.3678L37.2047 76.7266L39.306 77.7439L40.9897 74.2664L41.7296 74.6246L41.7033 78.9046ZM43.354 69.383L44.2271 69.8057C44.967 70.1639 45.123 70.8605 44.6645 71.8076C44.2131 72.7399 43.5699 73.0496 42.83 72.6913L41.9569 72.2686L43.354 69.383ZM48.2105 79.5891L49.321 77.2954L52.2659 78.7211L53.1973 76.7974L50.2524 75.3716L51.2913 73.2259L54.5321 74.7949L55.4993 72.7972L50.1572 70.2107L45.1419 80.5694L50.6321 83.2275L51.5993 81.2298L48.2105 79.5891ZM61.7556 75.8262L60.5949 78.2235C60.1292 79.1854 59.3879 81.0185 58.935 82.4067L58.8691 82.4296C58.9327 81.6567 59.0255 80.8613 59.0892 80.0884L59.2991 74.6368L57.2274 73.6338L52.2121 83.9925L54.2839 84.9956L55.3012 82.8942C55.8601 81.74 56.6951 79.7513 57.1628 78.3702L57.2287 78.3473L56.9358 81.3292L56.7404 86.1849L58.8121 87.188L63.8274 76.8292L61.7556 75.8262Z" fill="white"/>
<path d="M21.1616 39.0564L18.1261 36.8166L23.2496 27.9206L33.9682 32.5133L32.5542 35.8132L25.2994 32.7047L23.3241 36.1666C23.576 36.1354 23.9754 36.1426 24.5224 36.1881C25.0814 36.2289 25.6547 36.3752 26.2425 36.627C27.1494 37.0156 27.8919 37.4977 28.4701 38.0734C29.0603 38.6443 29.4856 39.2986 29.746 40.0363C30.0099 40.7656 30.0999 41.5644 30.016 42.4329C29.9405 43.3049 29.6923 44.2322 29.2714 45.2146C28.9332 46.0039 28.4756 46.7122 27.8987 47.3396C27.3338 47.9622 26.6609 48.4541 25.8801 48.8152C25.1112 49.1715 24.2542 49.3509 23.309 49.3534C22.3674 49.3475 21.3508 49.1106 20.2592 48.6429C19.4447 48.2939 18.7052 47.828 18.0406 47.2451C17.376 46.6622 16.8338 46.0025 16.4139 45.266C16.006 44.5248 15.7654 43.7409 15.6922 42.9145C15.631 42.0832 15.7844 41.2496 16.1526 40.4135L20.4224 42.243C20.2569 42.6988 20.1964 43.13 20.2408 43.5366C20.2852 43.9433 20.4232 44.3055 20.6547 44.6234C20.8982 44.9364 21.2257 45.1811 21.6371 45.3574C22.057 45.5373 22.4414 45.6026 22.7905 45.5534C23.1395 45.5042 23.4568 45.3668 23.7423 45.1413C24.0277 44.9158 24.285 44.6285 24.5141 44.2794C24.7467 43.9219 24.9548 43.529 25.1383 43.1008C25.3326 42.6474 25.4567 42.2186 25.5107 41.8143C25.573 41.4137 25.5532 41.0424 25.4512 40.7006C25.3528 40.3503 25.1644 40.0361 24.8861 39.7578C24.6162 39.4832 24.2504 39.2469 23.7885 39.049C23.1756 38.7864 22.6478 38.6844 22.2052 38.7433C21.7626 38.8021 21.4147 38.9065 21.1616 39.0564ZM46.6332 46.8099L45.1976 50.1602C44.6328 51.4785 43.9863 52.5581 43.2583 53.399C42.5387 54.2436 41.7567 54.8626 40.9122 55.2561C40.0762 55.6532 39.2012 55.8398 38.2872 55.8159C37.3731 55.7919 36.4459 55.5785 35.5055 55.1755C34.7498 54.8517 34.0858 54.453 33.5136 53.9792C32.945 53.4971 32.4825 52.9411 32.1262 52.3114C31.7819 51.6769 31.5522 50.9722 31.4369 50.1973C31.3217 49.4225 31.3414 48.5762 31.4961 47.6586C31.6544 46.7326 31.9602 45.7405 32.4135 44.6825L33.849 41.3322C34.4175 40.0055 35.0597 38.9241 35.7757 38.088C36.5038 37.2471 37.29 36.6299 38.1344 36.2364C38.9788 35.8429 39.8581 35.6581 40.7721 35.682C41.6861 35.7059 42.6133 35.9193 43.5538 36.3223C44.3095 36.6461 44.9675 37.0473 45.5277 37.5258C46.0999 37.9996 46.5623 38.5555 46.915 39.1936C47.2713 39.8233 47.5029 40.5238 47.6097 41.2951C47.7249 42.07 47.7034 42.9204 47.5452 43.8464C47.3905 44.7641 47.0865 45.7519 46.6332 46.8099ZM40.7318 48.8579L42.6206 44.4496C42.8725 43.8618 43.0584 43.3352 43.1783 42.8698C43.3066 42.408 43.3725 41.9989 43.3761 41.6427C43.3881 41.29 43.3455 40.9836 43.2483 40.7233C43.1547 40.4546 43.0125 40.2297 42.8218 40.0486C42.643 39.8627 42.4193 39.7122 42.1506 39.597C41.8148 39.4531 41.4819 39.395 41.152 39.4226C40.8342 39.4454 40.5181 39.5684 40.2039 39.7915C39.8896 40.0147 39.5742 40.3565 39.2575 40.8172C38.9493 41.2814 38.6387 41.8788 38.3257 42.6093L36.4368 47.0176C36.1814 47.6138 35.9877 48.147 35.8558 48.6172C35.7359 49.0827 35.6681 49.4959 35.6526 49.8569C35.649 50.2132 35.694 50.5257 35.7876 50.7943C35.8848 51.0546 36.0287 51.2753 36.2195 51.4564C36.4102 51.6375 36.6399 51.7857 36.9086 51.9008C37.2361 52.0411 37.5588 52.0999 37.8766 52.077C38.1945 52.0542 38.5106 51.9312 38.8248 51.7081C39.1511 51.4802 39.4683 51.1341 39.7765 50.6699C40.0968 50.2008 40.4152 49.5969 40.7318 48.8579ZM61.8543 53.3317L60.4187 56.6821C59.8539 58.0004 59.2074 59.08 58.4794 59.9209C57.7598 60.7654 56.9777 61.3844 56.1333 61.7779C55.2973 62.175 54.4223 62.3616 53.5083 62.3377C52.5942 62.3138 51.667 62.1003 50.7266 61.6974C49.9708 61.3736 49.3069 60.9748 48.7347 60.501C48.1661 60.0189 47.7036 59.463 47.3473 58.8332C47.003 58.1987 46.7732 57.494 46.658 56.7192C46.5428 55.9443 46.5625 55.0981 46.7172 54.1804C46.8755 53.2544 47.1812 52.2624 47.6346 51.2044L49.0701 47.854C49.6386 46.5273 50.2808 45.4459 50.9968 44.6098C51.7249 43.7689 52.5111 43.1517 53.3555 42.7582C54.1999 42.3647 55.0791 42.1799 55.9932 42.2038C56.9072 42.2277 57.8344 42.4412 58.7749 42.8441C59.5306 43.1679 60.1885 43.5691 60.7488 44.0477C61.321 44.5214 61.7834 45.0773 62.1361 45.7155C62.4924 46.3452 62.724 47.0457 62.8308 47.8169C62.946 48.5918 62.9245 49.4422 62.7662 50.3683C62.6116 51.2859 62.3076 52.2737 61.8543 53.3317ZM55.9529 55.3798L57.8417 50.9714C58.0936 50.3837 58.2795 49.8571 58.3994 49.3916C58.5277 48.9298 58.5936 48.5208 58.5972 48.1645C58.6091 47.8119 58.5665 47.5054 58.4694 47.2451C58.3758 46.9764 58.2336 46.7515 58.0429 46.5704C57.8641 46.3845 57.6404 46.234 57.3717 46.1189C57.0358 45.975 56.703 45.9168 56.3731 45.9444C56.0553 45.9672 55.7392 46.0902 55.4249 46.3134C55.1107 46.5365 54.7952 46.8784 54.4786 47.339C54.1704 47.8032 53.8598 48.4006 53.5468 49.1311L51.6579 53.5395C51.4025 54.1357 51.2088 54.6689 51.0769 55.1391C50.957 55.6045 50.8892 56.0177 50.8737 56.3788C50.8701 56.735 50.9151 57.0475 51.0087 57.3162C51.1059 57.5765 51.2498 57.7972 51.4406 57.9783C51.6313 58.1594 51.861 58.3075 52.1297 58.4226C52.4572 58.5629 52.7799 58.6217 53.0977 58.5989C53.4156 58.5761 53.7316 58.4531 54.0459 58.2299C54.3721 58.002 54.6894 57.6559 54.9976 57.1917C55.3178 56.7227 55.6363 56.1187 55.9529 55.3798ZM76.8214 66.0466C76.033 67.6017 75.1008 67.9961 73.682 67.3882C72.5471 66.9019 72.2374 65.9143 72.9006 64.3666L73.3758 63.2574L76.2907 64.5064L77.1196 62.5718L74.2048 61.3228L74.7021 60.162L77.617 61.411L78.4459 59.4763L75.5311 58.2274L75.9069 57.3504C76.5921 55.7511 77.5465 55.3051 78.6557 55.7804C80.0486 56.3772 80.3803 57.3132 79.7761 59.0083L83.439 60.5777C84.9458 56.7048 83.818 53.7791 80.2067 52.2317C76.6728 50.7175 73.725 51.8969 72.0892 55.7146L71.7134 56.5916L69.7014 55.7296L68.8725 57.6642L70.8845 58.5263L70.3871 59.6871L68.3751 58.825L67.5462 60.7596L69.5582 61.6217L69.0829 62.7309C67.4582 66.5227 68.6487 69.4447 72.1568 70.9479C75.8197 72.5173 78.7822 71.3748 80.4843 67.6161L76.8214 66.0466Z" fill="white"/>
</svg>
