<svg width="26" height="27" viewBox="0 0 26 27" fill="none" xmlns="http://www.w3.org/2000/svg">
<g clip-path="url(#clip0_7_248)">
<circle cx="12.8191" cy="14.498" r="11" fill="#2372B6"/>
<path d="M26 2.22944C25.8174 2.47623 25.6249 2.71315 25.4571 2.96734C21.7873 8.5423 18.12 14.1173 14.4602 19.6996C14.2603 20.0032 14.0579 20.1537 13.6754 20.134C12.9695 20.0994 12.2588 20.1414 11.553 20.1118C11.358 20.1044 11.1063 20.0057 10.9854 19.8625C9.09496 17.6192 7.22183 15.3586 5.34623 13.103C5.32649 13.0783 5.32402 13.0437 5.29688 12.9722C6.32105 12.1282 7.35756 11.2743 8.4459 10.3759C9.7909 11.9431 11.1211 13.4954 12.4932 15.097C16.4739 10.3759 20.4374 5.66968 24.4181 0.948608C24.9635 1.31879 25.4817 1.66923 26 2.02213V2.22944Z" fill="white"/>
</g>
<defs>
<clipPath id="clip0_7_248">
<rect width="26" height="26" fill="white" transform="translate(0 0.948608)"/>
</clipPath>
</defs>
</svg>
