<svg width="79" height="80" viewBox="0 0 79 80" fill="none" xmlns="http://www.w3.org/2000/svg">
<path fill-rule="evenodd" clip-rule="evenodd" d="M42.5634 59.6871C43.3451 59.8227 43.9913 59.8546 44.6055 59.8546C44.9016 59.8546 45.1905 59.8474 45.4928 59.8398L45.5388 59.8386C45.8579 59.8307 46.193 59.8227 46.5759 59.8227C53.5957 59.8227 61.5728 56.0655 67.9146 49.7716C74.5834 43.1586 78.4124 34.7826 78.4124 26.8055C78.4124 12.3511 66.6542 0.592834 52.1997 0.592834C37.7452 0.592834 25.987 12.3511 25.987 26.8055C25.987 38.1011 33.2621 48.1123 43.8557 51.6621L39.9469 59.2324L42.5634 59.6871ZM49.5752 49.0935L46.3206 48.3277C36.6444 45.6873 29.8878 36.8407 29.8878 26.8055C29.8878 14.5049 39.8911 4.5016 52.1917 4.5016C64.4924 4.5016 74.4957 14.5049 74.4957 26.8055C74.4957 39.521 60.9506 55.9219 46.5679 55.9219C46.474 55.9219 46.3844 55.924 46.2968 55.926C46.2131 55.928 46.1312 55.9299 46.0494 55.9299L49.5752 49.0935ZM57.7437 28.2254C57.7198 29.9724 58.9403 31.2248 60.6872 31.2328C62.4262 31.2487 63.7983 29.9485 63.8063 28.2812C63.8063 26.638 62.3385 25.1463 60.7192 25.1542C59.1237 25.1622 57.7756 26.5502 57.7437 28.2254ZM52.2954 31.2328C50.6442 31.2248 49.2243 29.8527 49.2243 28.2653C49.2243 26.6619 50.7638 25.1303 52.3593 25.1622C53.9706 25.1941 55.3666 26.6539 55.3507 28.3052C55.3347 29.9883 54.0265 31.2408 52.2954 31.2328ZM35.9344 79.4064C31.3556 79.4543 27.1516 78.0822 23.211 75.9364C14.8191 71.3735 8.15821 65.0158 3.69902 56.5122C1.09849 51.5584 -0.145936 46.2457 0.0136061 40.6298C0.149217 36.019 2.98108 32.4054 7.26477 31.4083C9.33882 30.9217 10.8385 31.4322 12.0351 33.1792C13.3541 35.0983 14.6421 37.0484 15.9288 38.9965L15.9293 38.9972L15.9346 39.0053C16.3735 39.6698 16.8123 40.334 17.2521 40.9967C17.4036 41.2201 17.5233 41.4594 17.635 41.7067C18.2492 43.0628 17.986 44.1636 16.8054 45.0651C16.4564 45.3279 16.0865 45.5627 15.717 45.7973L15.7169 45.7974L15.7168 45.7975C15.4022 45.9972 15.0879 46.1968 14.7872 46.4132C14.2128 46.828 13.6464 47.2508 13.1439 47.7374C12.0909 48.7425 11.7878 49.979 12.1787 51.3829C12.761 53.4729 13.8937 55.2837 15.0983 57.0546C18.0817 61.4659 22.0304 64.7286 26.9602 66.7787C27.3431 66.9382 27.7419 67.0499 28.1408 67.1536C29.4251 67.4807 30.5977 67.2413 31.5151 66.2681C31.9632 65.7869 32.3575 65.2557 32.7514 64.7253C32.9255 64.4908 33.0995 64.2564 33.278 64.0266C33.4317 63.8269 33.5812 63.623 33.7308 63.419L33.7309 63.419C34.0474 62.9875 34.3644 62.5553 34.7219 62.1599C35.3999 61.4021 36.2695 61.2027 37.2108 61.6335C37.8888 61.9446 38.5509 62.2876 39.1811 62.6944C41.6141 64.2739 44.0391 65.8773 46.4562 67.4887C48.0676 68.5576 48.5223 69.818 47.9718 71.6766C47.8158 72.2009 47.6109 72.7154 47.4069 73.2278L47.4066 73.2286C47.3499 73.3708 47.2934 73.5129 47.2379 73.6549C45.9536 76.9096 43.5047 78.6406 40.0985 79.0714C39.255 79.1635 38.4086 79.2232 37.5647 79.2827L37.5644 79.2827L37.5641 79.2827L37.5639 79.2827C37.0192 79.3211 36.4756 79.3595 35.9344 79.4064ZM43.9274 31.2328C42.1884 31.2408 40.8801 30.0043 40.8562 28.3291C40.8323 26.646 42.2362 25.1702 43.8715 25.1622C45.4909 25.1463 46.8949 26.5822 46.9029 28.2494C46.9188 29.9645 45.6664 31.2248 43.9274 31.2328Z" fill="white"/>
</svg>
