<svg width="91" height="103" viewBox="0 0 91 103" fill="none" xmlns="http://www.w3.org/2000/svg">
<path d="M0.868164 30.7992V72.1292C0.868164 75.3292 2.57817 78.2792 5.33817 79.8792L41.1282 100.539C43.8982 102.139 47.3082 102.139 50.0782 100.539L85.8682 79.8792C88.6382 78.2792 90.3382 75.3292 90.3382 72.1292V30.7992C90.3382 27.5992 88.6282 24.6492 85.8682 23.0492L50.0782 2.38921C47.3082 0.789209 43.8982 0.789209 41.1282 2.38921L5.33817 23.0492C2.56817 24.6492 0.868164 27.5992 0.868164 30.7992Z" fill="white" stroke="#C6C6C6" stroke-width="0.54" stroke-miterlimit="10"/>
<path d="M8.27814 41.5392V30.0892C8.27814 29.9792 8.33815 29.8792 8.42815 29.8292L45.4482 8.45917C45.4482 8.45917 45.5481 8.41918 45.5981 8.41918C45.6481 8.41918 45.6981 8.42917 45.7481 8.45917L82.7681 29.8292C82.8581 29.8792 82.9182 29.9792 82.9182 30.0892V41.5392H86.9681V30.0892C86.9681 28.5392 86.1381 27.0892 84.7881 26.3192L47.7681 4.94918C46.4281 4.16918 44.7582 4.17918 43.4182 4.94918L6.39815 26.3192C5.05815 27.0992 4.21814 28.5392 4.21814 30.0892V41.5392H8.26814H8.27814Z" fill="#36A9E1"/>
<path d="M82.9281 68.5092V72.8292C82.9281 72.9392 82.8681 73.0392 82.7782 73.0892L45.7582 94.4592C45.6682 94.5092 45.5481 94.5092 45.4581 94.4592L8.43816 73.0892C8.34816 73.0392 8.28816 72.9292 8.28816 72.8292V68.5092H4.23816V72.8292C4.23816 74.3792 5.06815 75.8192 6.41815 76.5992L43.4382 97.9692C44.1082 98.3592 44.8582 98.5492 45.6181 98.5492C46.3781 98.5492 47.1281 98.3592 47.7981 97.9692L84.8182 76.5992C86.1582 75.8192 86.9982 74.3792 86.9982 72.8292V68.5092H82.9482H82.9281Z" fill="#36A9E1"/>
<path d="M90.2182 45.6091H0.998169V64.9091H90.2182V45.6091Z" fill="#1D71B8"/>
<path d="M33.7481 29.1492C33.5581 29.1492 33.4481 29.0491 33.4481 28.8591V20.3092C33.4481 20.1192 33.5481 20.0092 33.7481 20.0092H35.9681C37.6381 20.0092 38.6081 20.5392 38.6081 22.3192C38.6081 23.5492 38.0681 24.0791 37.5181 24.2991C38.2781 24.5491 38.8281 25.2292 38.8281 26.5092C38.8281 28.4292 37.7781 29.1392 36.1181 29.1392H33.7481V29.1492ZM35.8881 23.7991C36.6881 23.7991 37.0381 23.4392 37.0381 22.5692C37.0381 21.6992 36.6881 21.4292 35.9081 21.4292H34.9981V23.7991H35.8781H35.8881ZM35.9881 27.7492C36.8581 27.7492 37.2481 27.4092 37.2481 26.4292C37.2481 25.4492 36.8881 25.1192 36.0181 25.1192H35.0081V27.7492H35.9881Z" fill="#3C3C3B"/>
<path d="M43.6982 27.8091C43.8682 27.7591 44.0081 27.8391 44.0081 28.0291V28.7291C44.0081 28.9391 43.9081 29.0191 43.7481 29.0691C43.4281 29.1691 42.9481 29.2491 42.4681 29.2491C40.5281 29.2491 39.7081 28.1991 39.7081 25.5991C39.7081 22.9991 40.4481 21.9991 42.0681 21.9991C43.6881 21.9991 44.2481 23.1291 44.2481 25.2291V25.9891C44.2481 26.2091 44.1581 26.2791 43.9381 26.2791H41.1682C41.2082 27.4991 41.6382 27.9991 42.6082 27.9991C43.0782 27.9991 43.4381 27.9091 43.7081 27.8191L43.6982 27.8091ZM41.1481 25.1691H42.8282V25.0291C42.8282 23.8591 42.6681 23.1891 42.0381 23.1891C41.4381 23.1891 41.1781 23.7191 41.1481 25.1691Z" fill="#3C3C3B"/>
<path d="M46.7082 29.2491C46.1282 29.2491 45.5682 29.1591 45.2982 29.0691C45.1382 29.0291 45.0682 28.9691 45.0682 28.7791V27.9591C45.0682 27.7891 45.1682 27.7091 45.3682 27.7791C45.5782 27.8491 46.0282 27.9391 46.5382 27.9391C47.1082 27.9391 47.5082 27.7491 47.5082 27.1991C47.5082 26.6491 47.1082 26.4391 46.4182 26.0191C45.5982 25.5391 45.0482 25.1391 45.0482 23.8691C45.0482 22.5991 45.6682 21.9891 47.1682 21.9891C47.6782 21.9891 48.1682 22.0791 48.4082 22.1291C48.5782 22.1691 48.6382 22.2291 48.6382 22.4091V23.1991C48.6382 23.3691 48.5382 23.4591 48.3482 23.4091C48.1882 23.3691 47.8182 23.2791 47.4182 23.2791C46.7682 23.2791 46.4682 23.4191 46.4682 23.9391C46.4682 24.4091 46.8682 24.6691 47.5782 25.0691C48.4482 25.5691 48.9282 26.1091 48.9282 27.2491C48.9282 28.7491 48.0382 29.2491 46.6982 29.2491H46.7082Z" fill="#3C3C3B"/>
<path d="M51.6082 23.6991V26.9491C51.6082 27.6191 51.6981 27.8091 52.1481 27.8091C52.2381 27.8091 52.3381 27.7991 52.3981 27.7791C52.5781 27.7491 52.6682 27.8591 52.6682 28.0291V28.8491C52.6682 29.0091 52.6082 29.0791 52.4482 29.1391C52.2782 29.1891 52.0181 29.2191 51.7981 29.2191C50.5781 29.2191 50.1682 28.7491 50.1682 27.2191V23.7091H49.7381C49.5581 23.7091 49.4781 23.6291 49.4781 23.4491V22.5791C49.4781 22.3991 49.5581 22.3191 49.7381 22.3191H50.1781V20.8691C50.1781 20.6791 50.2581 20.5991 50.4381 20.5991H51.3282C51.5182 20.5991 51.5981 20.6791 51.5981 20.8691V22.3191H52.3882C52.5682 22.3191 52.6481 22.3991 52.6481 22.5791V23.4291C52.6481 23.6091 52.5682 23.6991 52.3882 23.6991H51.5981H51.6082Z" fill="#3C3C3B"/>
<path d="M57.4182 27.8091C57.5882 27.7591 57.7282 27.8391 57.7282 28.0291V28.7291C57.7282 28.9391 57.6282 29.0191 57.4682 29.0691C57.1482 29.1691 56.6682 29.2491 56.1882 29.2491C54.2482 29.2491 53.4282 28.1991 53.4282 25.5991C53.4282 22.9991 54.1682 21.9991 55.7882 21.9991C57.4082 21.9991 57.9682 23.1291 57.9682 25.2291V25.9891C57.9682 26.2091 57.8782 26.2791 57.6582 26.2791H54.8882C54.9282 27.4991 55.3582 27.9991 56.3282 27.9991C56.7982 27.9991 57.1582 27.9091 57.4282 27.8191L57.4182 27.8091ZM54.8682 25.1691H56.5482V25.0291C56.5482 23.8591 56.3882 23.1891 55.7582 23.1891C55.1582 23.1891 54.8982 23.7191 54.8682 25.1691Z" fill="#3C3C3B"/>
<path d="M14.8982 31.9992C14.9782 31.8692 15.0482 31.7792 15.2082 31.7792H16.0882C16.2782 31.7792 16.3382 31.9292 16.2482 32.0792L14.3582 35.2692L16.3282 39.0892C16.4082 39.2492 16.3582 39.3892 16.1682 39.3892H15.2482C15.0782 39.3892 14.9882 39.2892 14.9382 39.1692L13.3082 35.9392V39.1492C13.3082 39.2992 13.2282 39.3892 13.0682 39.3892H12.2382C12.0782 39.3892 11.9882 39.2992 11.9882 39.1492V32.0192C11.9882 31.8592 12.0782 31.7692 12.2382 31.7692H13.0682C13.2282 31.7692 13.3082 31.8592 13.3082 32.0192V34.6892L14.9082 31.9892L14.8982 31.9992Z" fill="#3C3C3B"/>
<path d="M16.9982 33.7392C16.9982 33.5892 17.0582 33.5192 17.2182 33.5192H18.0082C18.1582 33.5192 18.2282 33.5892 18.2282 33.7392V37.3892C18.2282 37.9692 18.3582 38.3192 18.8082 38.3192C19.3082 38.3192 19.5682 37.8892 19.5682 37.1292V33.7392C19.5682 33.5892 19.6482 33.5192 19.7982 33.5192H20.5782C20.7282 33.5192 20.8082 33.5892 20.8082 33.7392V39.1892C20.8082 39.3392 20.7282 39.4092 20.5782 39.4092H19.8682C19.7082 39.4092 19.6282 39.3592 19.6182 39.2192L19.5982 38.8292C19.4282 39.1392 19.0882 39.4992 18.4282 39.4992C17.4682 39.4992 17.0082 38.8392 17.0082 37.7592V33.7492L16.9982 33.7392Z" fill="#3C3C3B"/>
<path d="M25.5582 39.1892C25.5582 39.3392 25.4982 39.4092 25.3282 39.4092H24.5482C24.3982 39.4092 24.3282 39.3492 24.3282 39.1892V35.5092C24.3282 34.9392 24.1982 34.6092 23.7582 34.6092C23.2082 34.6092 22.9582 35.0492 22.9582 35.8192V39.1892C22.9582 39.3392 22.8982 39.4092 22.7382 39.4092H21.9582C21.7982 39.4092 21.7281 39.3492 21.7281 39.1892V33.7392C21.7281 33.5892 21.7882 33.5192 21.9582 33.5192H22.6682C22.8282 33.5192 22.9082 33.5592 22.9182 33.7092L22.9382 34.0992C23.0982 33.7892 23.5082 33.4292 24.1582 33.4292C25.1082 33.4292 25.5382 34.1392 25.5382 35.2092V39.1692L25.5582 39.1892Z" fill="#3C3C3B"/>
<path d="M29.3281 38.7892C29.1781 39.1792 28.7081 39.4892 28.1281 39.4892C26.9981 39.4892 26.4081 38.6392 26.4081 36.4592C26.4081 34.2792 26.9781 33.4392 28.1281 33.4392C28.7181 33.4392 29.1681 33.7492 29.3081 34.0892V32.0192C29.3081 31.8692 29.3881 31.7892 29.5381 31.7892H30.3181C30.4681 31.7892 30.5481 31.8692 30.5481 32.0192V39.1892C30.5481 39.3392 30.4681 39.4092 30.3181 39.4092H29.6081C29.4481 39.4092 29.3681 39.3592 29.3581 39.2192L29.3381 38.7992L29.3281 38.7892ZM28.4481 34.5192C27.8781 34.5192 27.6581 35.0392 27.6581 36.4592C27.6581 37.8792 27.8781 38.3992 28.4481 38.3992C29.0181 38.3992 29.3081 37.8492 29.3081 36.4592C29.3081 35.0692 29.0081 34.5192 28.4481 34.5192Z" fill="#3C3C3B"/>
<path d="M34.7482 38.2892C34.8882 38.2492 35.0082 38.3092 35.0082 38.4692V39.0492C35.0082 39.2192 34.9182 39.2892 34.7882 39.3292C34.5182 39.4192 34.1182 39.4792 33.7182 39.4792C32.0982 39.4792 31.4182 38.5992 31.4182 36.4292C31.4182 34.2592 32.0382 33.4292 33.3882 33.4292C34.7382 33.4292 35.2081 34.3692 35.2081 36.1192V36.7592C35.2081 36.9392 35.1282 36.9992 34.9482 36.9992H32.6382C32.6682 38.0192 33.0282 38.4392 33.8382 38.4392C34.2281 38.4392 34.5282 38.3592 34.7582 38.2892H34.7482ZM32.6181 36.0892H34.0182V35.9692C34.0182 34.9992 33.8882 34.4392 33.3582 34.4392C32.8582 34.4392 32.6482 34.8792 32.6082 36.0892H32.6181Z" fill="#3C3C3B"/>
<path d="M39.8681 39.1892C39.8681 39.3392 39.8082 39.4092 39.6382 39.4092H38.8582C38.7082 39.4092 38.6382 39.3492 38.6382 39.1892V35.5092C38.6382 34.9392 38.5081 34.6092 38.0681 34.6092C37.5181 34.6092 37.2681 35.0492 37.2681 35.8192V39.1892C37.2681 39.3392 37.2081 39.4092 37.0481 39.4092H36.2681C36.1081 39.4092 36.0381 39.3492 36.0381 39.1892V33.7392C36.0381 33.5892 36.0981 33.5192 36.2681 33.5192H36.9781C37.1381 33.5192 37.2181 33.5592 37.2281 33.7092L37.2481 34.0992C37.4081 33.7892 37.8181 33.4292 38.4681 33.4292C39.4181 33.4292 39.8481 34.1392 39.8481 35.2092V39.1692L39.8681 39.1892Z" fill="#3C3C3B"/>
<path d="M42.0381 39.2092C42.0281 39.3492 41.9481 39.3992 41.7881 39.3992H41.0782C40.9182 39.3992 40.8481 39.3392 40.8481 39.1792V32.0092C40.8481 31.8592 40.9082 31.7792 41.0782 31.7792H41.8582C42.0082 31.7792 42.0782 31.8592 42.0782 32.0092V34.0792C42.2282 33.7492 42.6781 33.4292 43.2781 33.4292C44.4281 33.4292 44.9881 34.3292 44.9881 36.4492C44.9881 38.5692 44.4081 39.4792 43.2581 39.4792C42.6781 39.4792 42.2181 39.1692 42.0681 38.7692L42.0481 39.1992L42.0381 39.2092ZM42.9381 38.4092C43.5081 38.4092 43.7281 37.8792 43.7281 36.4692C43.7281 35.0592 43.5081 34.5292 42.9381 34.5292C42.3681 34.5292 42.0581 35.0792 42.0581 36.4692C42.0581 37.8592 42.3581 38.4092 42.9381 38.4092Z" fill="#3C3C3B"/>
<path d="M49.0581 38.2892C49.1981 38.2492 49.3181 38.3092 49.3181 38.4692V39.0492C49.3181 39.2192 49.2281 39.2892 49.0981 39.3292C48.8281 39.4192 48.4281 39.4792 48.0281 39.4792C46.4081 39.4792 45.7281 38.5992 45.7281 36.4292C45.7281 34.2592 46.3482 33.4292 47.6982 33.4292C49.0482 33.4292 49.5181 34.3692 49.5181 36.1192V36.7592C49.5181 36.9392 49.4381 36.9992 49.2581 36.9992H46.9482C46.9782 38.0192 47.3381 38.4392 48.1481 38.4392C48.5381 38.4392 48.8381 38.3592 49.0681 38.2892H49.0581ZM46.9281 36.0892H48.3282V35.9692C48.3282 34.9992 48.1982 34.4392 47.6682 34.4392C47.1682 34.4392 46.9582 34.8792 46.9182 36.0892H46.9281Z" fill="#3C3C3B"/>
<path d="M51.8482 34.8692V37.5792C51.8482 38.1392 51.9282 38.2892 52.2982 38.2892C52.3782 38.2892 52.4582 38.2792 52.5082 38.2692C52.6582 38.2492 52.7382 38.3292 52.7382 38.4792V39.1592C52.7382 39.2892 52.6882 39.3492 52.5582 39.3992C52.4182 39.4392 52.1982 39.4692 52.0182 39.4692C50.9982 39.4692 50.6582 39.0792 50.6582 37.8092V34.8792H50.2982C50.1482 34.8792 50.0782 34.8192 50.0782 34.6592V33.9392C50.0782 33.7892 50.1382 33.7192 50.2982 33.7192H50.6682V32.5092C50.6682 32.3492 50.7282 32.2792 50.8882 32.2792H51.6382C51.7982 32.2792 51.8682 32.3392 51.8682 32.5092V33.7192H52.5282C52.6782 33.7192 52.7482 33.7892 52.7482 33.9392V34.6492C52.7482 34.7992 52.6882 34.8792 52.5282 34.8792H51.8682L51.8482 34.8692Z" fill="#3C3C3B"/>
<path d="M54.4381 33.5291C54.6081 33.5291 54.6681 33.5791 54.6781 33.7591L54.6982 34.3591C54.8182 33.9391 55.1981 33.4591 55.7681 33.4591C55.9481 33.4591 56.0181 33.5191 56.0181 33.6991V34.6891C56.0181 34.8391 55.9582 34.8991 55.8282 34.8991C55.7382 34.8991 55.6581 34.8891 55.5281 34.8891C55.0081 34.8791 54.7081 35.4291 54.7081 36.2091V39.1891C54.7081 39.3391 54.6481 39.4091 54.4881 39.4091H53.7081C53.5481 39.4091 53.4781 39.3491 53.4781 39.1891V33.7391C53.4781 33.5891 53.5381 33.5191 53.7081 33.5191H54.4381V33.5291Z" fill="#3C3C3B"/>
<path d="M59.8782 38.2892C60.0182 38.2492 60.1382 38.3092 60.1382 38.4692V39.0492C60.1382 39.2192 60.0482 39.2892 59.9182 39.3292C59.6482 39.4192 59.2482 39.4792 58.8482 39.4792C57.2282 39.4792 56.5482 38.5992 56.5482 36.4292C56.5482 34.2592 57.1682 33.4292 58.5182 33.4292C59.8682 33.4292 60.3382 34.3692 60.3382 36.1192V36.7592C60.3382 36.9392 60.2582 36.9992 60.0782 36.9992H57.7682C57.7982 38.0192 58.1582 38.4392 58.9682 38.4392C59.3582 38.4392 59.6582 38.3592 59.8882 38.2892H59.8782ZM57.7482 36.0892H59.1482V35.9692C59.1482 34.9992 59.0182 34.4392 58.4882 34.4392C57.9882 34.4392 57.7782 34.8792 57.7382 36.0892H57.7482Z" fill="#3C3C3B"/>
<path d="M61.1782 33.7392C61.1782 33.5892 61.2382 33.5192 61.3982 33.5192H62.1882C62.3382 33.5192 62.4082 33.5892 62.4082 33.7392V37.3892C62.4082 37.9692 62.5382 38.3192 62.9882 38.3192C63.4882 38.3192 63.7482 37.8892 63.7482 37.1292V33.7392C63.7482 33.5892 63.8282 33.5192 63.9782 33.5192H64.7582C64.9082 33.5192 64.9882 33.5892 64.9882 33.7392V39.1892C64.9882 39.3392 64.9082 39.4092 64.7582 39.4092H64.0482C63.8882 39.4092 63.8082 39.3592 63.7982 39.2192L63.7782 38.8292C63.6082 39.1392 63.2682 39.4992 62.6082 39.4992C61.6482 39.4992 61.1882 38.8392 61.1882 37.7592V33.7492L61.1782 33.7392Z" fill="#3C3C3B"/>
<path d="M65.9182 33.7392C65.9182 33.5892 65.9882 33.5192 66.1382 33.5192H66.9281C67.0781 33.5192 67.1481 33.5892 67.1481 33.7392V37.3892C67.1481 37.9692 67.2781 38.3192 67.7281 38.3192C68.2281 38.3192 68.4881 37.8892 68.4881 37.1292V33.7392C68.4881 33.5892 68.5681 33.5192 68.7181 33.5192H69.4981C69.6481 33.5192 69.7281 33.5892 69.7281 33.7392V39.1892C69.7281 39.3392 69.6481 39.4092 69.4981 39.4092H68.7881C68.6281 39.4092 68.5481 39.3592 68.5381 39.2192L68.5181 38.8292C68.3481 39.1392 68.0081 39.4992 67.3481 39.4992C66.3881 39.4992 65.9281 38.8392 65.9281 37.7592V33.7492L65.9182 33.7392Z" fill="#3C3C3B"/>
<path d="M74.4781 39.1892C74.4781 39.3392 74.4081 39.4092 74.2481 39.4092H73.4681C73.3181 39.4092 73.2481 39.3492 73.2481 39.1892V35.5092C73.2481 34.9392 73.1181 34.6092 72.6781 34.6092C72.1281 34.6092 71.8781 35.0492 71.8781 35.8192V39.1892C71.8781 39.3392 71.8081 39.4092 71.6581 39.4092H70.8781C70.7181 39.4092 70.6481 39.3492 70.6481 39.1892V33.7392C70.6481 33.5892 70.7081 33.5192 70.8781 33.5192H71.5881C71.7481 33.5192 71.8281 33.5592 71.8381 33.7092L71.8582 34.0992C72.0182 33.7892 72.4282 33.4292 73.0782 33.4292C74.0282 33.4292 74.4581 34.1392 74.4581 35.2092V39.1692L74.4781 39.1892Z" fill="#3C3C3B"/>
<path d="M79.2881 38.7091C79.2881 40.0591 78.5981 40.6791 77.2181 40.6791C76.6581 40.6791 76.2282 40.6091 75.9182 40.5091C75.7882 40.4591 75.7081 40.3891 75.7081 40.2291V39.6491C75.7081 39.4891 75.8081 39.4291 75.9781 39.4791C76.2081 39.5391 76.6581 39.6391 77.0681 39.6391C77.7381 39.6391 78.0881 39.3591 78.0881 38.6691V38.2191C77.9281 38.6091 77.5481 38.8691 76.9381 38.8691C75.8181 38.8691 75.3381 38.0291 75.3381 36.1691C75.3381 34.3091 75.8681 33.4591 76.9681 33.4591C77.5581 33.4591 77.9681 33.8191 78.1181 34.1591L78.1382 33.7391C78.1482 33.5891 78.2282 33.5491 78.3882 33.5491H79.0581C79.2181 33.5491 79.2881 33.6191 79.2881 33.7691V38.7391V38.7091ZM77.3081 34.4791C76.7781 34.4791 76.5881 35.0191 76.5881 36.1491C76.5881 37.2791 76.7681 37.8091 77.3081 37.8091C77.8181 37.8091 78.0981 37.2591 78.0981 36.1491C78.0981 35.0391 77.8181 34.4791 77.3081 34.4791Z" fill="#3C3C3B"/>
<path d="M22.0382 75.6593L20.0482 76.7093L20.4282 74.4893L18.8182 72.9093L21.0382 72.5893L22.0382 70.5693L23.0382 72.5893L25.2682 72.9093L23.6482 74.4893L24.0282 76.7093L22.0382 75.6593Z" fill="#F39200"/>
<path d="M69.1682 75.6593L67.1782 76.7093L67.5582 74.4893L65.9382 72.9093L68.1682 72.5893L69.1682 70.5693L70.1682 72.5893L72.3982 72.9093L70.7782 74.4893L71.1582 76.7093L69.1682 75.6593Z" fill="#F39200"/>
<path d="M31.9581 77.0192L28.9481 78.5992L29.5281 75.2492L27.0881 72.8792L30.4481 72.3892L31.9581 69.3492L33.4581 72.3892L36.8181 72.8792L34.3881 75.2492L34.9581 78.5992L31.9581 77.0192Z" fill="#F39200"/>
<path d="M59.2482 77.0192L56.2482 78.5992L56.8182 75.2492L54.3882 72.8792L57.7482 72.3892L59.2482 69.3492L60.7582 72.3892L64.1182 72.8792L61.6882 75.2492L62.2582 78.5992L59.2482 77.0192Z" fill="#F39200"/>
<path d="M45.6082 78.7193L41.4082 80.9293L42.2082 76.2493L38.8082 72.9393L43.5082 72.2493L45.6082 67.9993L47.7082 72.2493L52.3982 72.9393L48.9982 76.2493L49.8082 80.9293L45.6082 78.7193Z" fill="#F39200"/>
<path d="M7.38316 56.0241V58.1441H9.40317C9.57317 58.1441 9.64317 58.2241 9.64317 58.3841V59.1341C9.64317 59.2841 9.56317 59.3741 9.40317 59.3741H6.30316C6.13316 59.3741 6.05316 59.2841 6.05316 59.1341V51.8741C6.05316 51.7041 6.14316 51.6241 6.30316 51.6241H9.37317C9.52317 51.6241 9.61317 51.7141 9.61317 51.8741V52.6141C9.61317 52.7841 9.52317 52.8641 9.37317 52.8641H7.38316V54.8241H9.27316C9.44316 54.8241 9.52316 54.9141 9.52316 55.0741V55.7741C9.52316 55.9241 9.43316 56.0141 9.27316 56.0141H7.38316V56.0241Z" fill="white"/>
<path d="M10.7932 51.8741C10.7932 51.7041 10.8832 51.6241 11.0432 51.6241H11.8932C12.0632 51.6241 12.1331 51.7141 12.1331 51.8741V59.1341C12.1331 59.2841 12.0532 59.3741 11.8932 59.3741H11.0432C10.8732 59.3741 10.7932 59.2841 10.7932 59.1341V51.8741Z" fill="white"/>
<path d="M17.9532 59.1341C17.9532 59.2841 17.8732 59.3741 17.7132 59.3741H16.9432C16.7632 59.3741 16.6832 59.3141 16.6132 59.1641L14.7432 54.5641V59.1341C14.7432 59.2841 14.6532 59.3741 14.4932 59.3741H13.6932C13.5232 59.3741 13.4432 59.2841 13.4432 59.1341V51.8741C13.4432 51.7041 13.5332 51.6241 13.6932 51.6241H14.4632C14.6432 51.6241 14.7332 51.6941 14.7932 51.8341L16.6632 56.4441V51.8741C16.6632 51.7041 16.7432 51.6241 16.9032 51.6241H17.7132C17.8832 51.6241 17.9532 51.7141 17.9532 51.8741V59.1341Z" fill="white"/>
<path d="M20.5232 56.1941V59.1241C20.5232 59.2941 20.4332 59.3741 20.2732 59.3741H19.4332C19.2632 59.3741 19.1832 59.2841 19.1832 59.1241V51.8841C19.1832 51.7041 19.2732 51.6241 19.4332 51.6241H22.4432C22.6132 51.6241 22.6932 51.7141 22.6932 51.8741V52.6141C22.6932 52.7841 22.6032 52.8641 22.4432 52.8641H20.5132V54.9641H22.3732C22.5432 54.9641 22.6132 55.0541 22.6132 55.2141V55.9441C22.6132 56.1141 22.5332 56.1941 22.3732 56.1941H20.5132H20.5232Z" fill="white"/>
<path d="M26.2732 51.6241C26.5132 51.6241 26.5932 51.7341 26.6232 51.9041L28.1132 59.1241C28.1432 59.2941 28.0732 59.3841 27.8932 59.3841H27.0332C26.8532 59.3841 26.8032 59.2941 26.7732 59.1541L26.4532 57.6341H24.8232L24.5032 59.1541C24.4732 59.2941 24.4032 59.3841 24.2432 59.3841H23.3732C23.2032 59.3841 23.1332 59.2841 23.1632 59.1241L24.6532 51.9041C24.6832 51.7341 24.7532 51.6241 24.9932 51.6241H26.2832H26.2732ZM26.2932 56.4441L25.6432 53.0241H25.6132L24.9732 56.4441H26.2932Z" fill="white"/>
<path d="M32.3932 58.1541C32.5832 58.1241 32.6832 58.1841 32.6832 58.3641V59.0441C32.6832 59.2341 32.6032 59.2941 32.4432 59.3441C32.2232 59.4141 31.8232 59.4741 31.4232 59.4741C29.5832 59.4741 28.8232 58.6141 28.8232 55.4841C28.8232 52.3541 29.5732 51.5341 31.3832 51.5341C31.7532 51.5341 32.1532 51.6041 32.3732 51.6541C32.5532 51.6841 32.6232 51.7541 32.6232 51.9441V52.6341C32.6232 52.8041 32.5232 52.8741 32.3332 52.8441C32.1932 52.8141 31.8832 52.7541 31.6032 52.7541C30.5132 52.7541 30.1732 53.2941 30.1732 55.4841C30.1732 57.6741 30.5232 58.2441 31.6332 58.2441C31.9332 58.2441 32.2332 58.1941 32.3832 58.1541H32.3932Z" fill="white"/>
<path d="M36.8832 56.0441H35.1732V59.1341C35.1732 59.2841 35.0932 59.3741 34.9332 59.3741H34.0832C33.9132 59.3741 33.8332 59.2841 33.8332 59.1341V51.8741C33.8332 51.7041 33.9232 51.6241 34.0832 51.6241H34.9332C35.1032 51.6241 35.1732 51.7141 35.1732 51.8741V54.8041H36.8832V51.8741C36.8832 51.7041 36.9632 51.6241 37.1232 51.6241H37.9732C38.1432 51.6241 38.2232 51.7141 38.2232 51.8741V59.1341C38.2232 59.2841 38.1332 59.3741 37.9732 59.3741H37.1232C36.9532 59.3741 36.8832 59.2841 36.8832 59.1341V56.0441Z" fill="white"/>
<path d="M42.8532 59.3741C42.5932 59.3741 42.4332 59.2441 42.3832 58.9341L41.1832 51.9741C41.1432 51.7441 41.2532 51.5941 41.4932 51.5941H42.9531C43.2031 51.5941 43.3032 51.7141 43.3232 51.9341L43.7932 55.9741L43.9032 57.3341H43.9432L44.0532 55.9741L44.5232 51.9341C44.5432 51.7141 44.6431 51.5941 44.8931 51.5941H46.3532C46.5932 51.5941 46.7032 51.7441 46.6632 51.9741L45.4632 58.9341C45.4032 59.2441 45.2532 59.3741 44.9932 59.3741H42.8332H42.8532Z" fill="white"/>
<path d="M49.4232 56.3041V57.5241H51.2932C51.5232 57.5241 51.6432 57.6441 51.6432 57.8741V59.0141C51.6432 59.2441 51.5232 59.3641 51.2932 59.3641H47.7732C47.5432 59.3641 47.4232 59.2441 47.4232 59.0141V51.9341C47.4232 51.7041 47.5432 51.5841 47.7732 51.5841H51.2532C51.4832 51.5841 51.6032 51.7041 51.6032 51.9341V53.0741C51.6032 53.3041 51.4832 53.4241 51.2532 53.4241H49.4232V54.5141H51.1432C51.3732 54.5141 51.4932 54.6341 51.4932 54.8641V55.9441C51.4932 56.1741 51.3732 56.2941 51.1432 56.2941H49.4232V56.3041Z" fill="white"/>
<path d="M54.8832 51.5841C56.8932 51.5841 57.6332 52.2241 57.6332 54.3841C57.6332 55.6641 57.2832 56.3741 56.5532 56.7241L57.5432 58.9241C57.6532 59.1641 57.6132 59.3641 57.3132 59.3641H55.9732C55.6832 59.3641 55.5932 59.2941 55.4932 59.0541L54.6932 57.0741H54.5832V59.0141C54.5832 59.2441 54.4632 59.3641 54.2332 59.3641H52.9132C52.6832 59.3641 52.5632 59.2441 52.5632 59.0141V51.9341C52.5632 51.7041 52.6832 51.5841 52.9132 51.5841H54.8932H54.8832ZM54.8832 55.3641C55.4732 55.3641 55.5732 55.1141 55.5732 54.3841C55.5732 53.6541 55.4732 53.4041 54.8832 53.4041H54.5732V55.3641H54.8832Z" fill="white"/>
<path d="M60.2832 59.4841C59.7432 59.4841 59.0432 59.4041 58.7432 59.3141C58.4732 59.2341 58.3632 59.1641 58.3632 58.8841V57.8141C58.3632 57.5741 58.5032 57.4541 58.8132 57.5541C59.0232 57.6241 59.3932 57.6741 59.7332 57.6741C60.2632 57.6741 60.6132 57.5741 60.6132 57.1741C60.6132 56.8841 60.5232 56.7341 59.7432 56.1841C59.0132 55.6641 58.3632 55.0141 58.3632 53.6641C58.3632 52.1041 59.0032 51.4641 60.7732 51.4641C61.2732 51.4641 61.7532 51.5041 62.0132 51.5741C62.2632 51.6241 62.3732 51.7241 62.3732 52.0041V53.1041C62.3732 53.3441 62.2232 53.4341 61.9232 53.3641C61.7932 53.3341 61.3932 53.2641 61.0732 53.2641C60.6232 53.2641 60.4632 53.3841 60.4632 53.7041C60.4632 54.1141 60.8932 54.4941 61.3032 54.8041C62.2632 55.5341 62.7132 56.0941 62.7132 57.2341C62.7132 58.8541 61.5732 59.4641 60.2732 59.4641L60.2832 59.4841Z" fill="white"/>
<path d="M68.6332 55.4841C68.6332 58.7841 67.7632 59.4841 66.0332 59.4841C64.3032 59.4841 63.4332 58.7841 63.4332 55.4841C63.4332 52.1841 64.3032 51.4841 66.0332 51.4841C67.7632 51.4841 68.6332 52.1841 68.6332 55.4841ZM66.5732 55.4841C66.5732 53.5441 66.4732 53.2841 66.0332 53.2841C65.5932 53.2841 65.4932 53.5441 65.4932 55.4841C65.4932 57.4241 65.5932 57.6841 66.0332 57.6841C66.4732 57.6841 66.5732 57.4241 66.5732 55.4841Z" fill="white"/>
<path d="M71.9031 51.5841C73.9131 51.5841 74.6531 52.2241 74.6531 54.3841C74.6531 55.6641 74.3032 56.3741 73.5732 56.7241L74.5631 58.9241C74.6731 59.1641 74.6331 59.3641 74.3331 59.3641H72.9931C72.7031 59.3641 72.6131 59.2941 72.5131 59.0541L71.7131 57.0741H71.6031V59.0141C71.6031 59.2441 71.4831 59.3641 71.2531 59.3641H69.9331C69.7031 59.3641 69.5831 59.2441 69.5831 59.0141V51.9341C69.5831 51.7041 69.7031 51.5841 69.9331 51.5841H71.9131H71.9031ZM71.9031 55.3641C72.4931 55.3641 72.5931 55.1141 72.5931 54.3841C72.5931 53.6541 72.4931 53.4041 71.9031 53.4041H71.5931V55.3641H71.9031Z" fill="white"/>
<path d="M80.1532 54.4241C80.3832 54.4241 80.5032 54.5441 80.5032 54.7741V58.5841C80.5032 58.8341 80.3832 59.0241 80.1532 59.1541C79.8032 59.3541 78.9632 59.4841 78.2532 59.4841C76.3532 59.4841 75.4232 58.7841 75.4232 55.4441C75.4232 52.1041 76.3132 51.4741 78.5532 51.4741C79.1632 51.4741 79.6232 51.5541 79.9332 51.6441C80.1532 51.7141 80.2732 51.7941 80.2732 52.0741V53.1341C80.2732 53.4141 80.0732 53.4641 79.8032 53.4141C79.6132 53.3841 79.2532 53.3141 78.8232 53.3141C77.6832 53.3141 77.4832 53.6441 77.4832 55.4641C77.4832 57.4041 77.7432 57.7641 78.4932 57.7641C78.5732 57.7641 78.6732 57.7541 78.7232 57.7341V56.0741H78.3632C78.1332 56.0741 78.0132 55.9541 78.0132 55.7241V54.8041C78.0132 54.5741 78.1332 54.4541 78.3632 54.4541H80.1532V54.4241Z" fill="white"/>
<path d="M81.1432 51.9441C81.1432 51.7141 81.2632 51.5941 81.4932 51.5941H85.0532C85.2832 51.5941 85.4032 51.7141 85.4032 51.9441V53.0841C85.4032 53.3141 85.2832 53.4341 85.0532 53.4341H84.2832V59.0241C84.2832 59.2541 84.1632 59.3741 83.9332 59.3741H82.6132C82.3832 59.3741 82.2632 59.2541 82.2632 59.0241V53.4341H81.4932C81.2632 53.4341 81.1432 53.3141 81.1432 53.0841V51.9441Z" fill="white"/>
</svg>
