<svg width="95" height="93" viewBox="0 0 95 93" fill="none" xmlns="http://www.w3.org/2000/svg">
<path d="M47.2132 91.8893C72.3145 91.8893 92.6632 71.5406 92.6632 46.4393C92.6632 21.3379 72.3145 0.989258 47.2132 0.989258C22.1118 0.989258 1.76318 21.3379 1.76318 46.4393C1.76318 71.5406 22.1118 91.8893 47.2132 91.8893Z" fill="white" stroke="#C6C6C6" stroke-width="0.44" stroke-miterlimit="10"/>
<path d="M47.2132 91.8893C72.3145 91.8893 92.6632 71.5406 92.6632 46.4393C92.6632 21.3379 72.3145 0.989258 47.2132 0.989258C22.1118 0.989258 1.76318 21.3379 1.76318 46.4393C1.76318 71.5406 22.1118 91.8893 47.2132 91.8893Z" fill="white" stroke="#C6C6C6" stroke-width="0.54" stroke-miterlimit="10"/>
<path d="M9.7731 37.7694C13.7131 20.7294 29.0031 7.98941 47.2131 7.98941C65.4231 7.98941 80.7131 20.7294 84.6531 37.7694H88.8531C84.8431 18.4594 67.6931 3.89941 47.2031 3.89941C26.7131 3.89941 9.5731 18.4594 5.5531 37.7694H9.7531H9.7731Z" fill="#009640"/>
<path d="M4.76311 43.8894C4.71311 44.7294 4.68311 45.5794 4.68311 46.4394C4.68311 48.9594 4.91311 51.4194 5.33311 53.8194L4.76311 43.8894Z" fill="#009640"/>
<path d="M88.7231 55.6894C89.3831 52.7094 89.7531 49.6094 89.7531 46.4294C89.7531 44.9194 89.6731 43.4294 89.5131 41.9694L88.7231 55.6894Z" fill="#009640"/>
<path d="M81.7431 63.2994C75.4831 76.0594 62.3631 84.8694 47.2131 84.8694C32.0631 84.8694 18.9431 76.0594 12.6831 63.2994H8.1731C14.7131 78.3894 29.7531 88.9695 47.2131 88.9695C64.6731 88.9695 79.7131 78.3894 86.2531 63.2994H81.7431Z" fill="#009640"/>
<path d="M94.4931 41.4792H0.203125V59.6992H94.4931V41.4792Z" fill="#009640"/>
<path d="M7.64318 55.2094C7.40318 55.2094 7.28318 55.0993 7.22318 54.8293L5.39318 45.6794C5.35318 45.4694 5.45318 45.3293 5.66318 45.3293H6.86318C7.07318 45.3293 7.15318 45.4394 7.18318 45.6394L8.19318 51.3694L8.47318 53.3893H8.51318L8.79318 51.3694L9.80318 45.6394C9.83318 45.4394 9.91318 45.3293 10.1232 45.3293H11.3332C11.5432 45.3293 11.6432 45.4694 11.6032 45.6794L9.77318 54.8293C9.71318 55.0993 9.59318 55.2094 9.35318 55.2094H7.66318H7.64318Z" fill="white"/>
<path d="M16.7032 53.7694C16.8832 53.7094 17.0432 53.7994 17.0432 54.0094V54.7694C17.0432 54.9894 16.9332 55.0794 16.7632 55.1294C16.4132 55.2394 15.8932 55.3294 15.3732 55.3294C13.2732 55.3294 12.3932 54.1994 12.3932 51.3794C12.3932 48.5594 13.1932 47.4894 14.9432 47.4894C16.6932 47.4894 17.2932 48.7094 17.2932 50.9794V51.8094C17.2932 52.0494 17.1932 52.1194 16.9532 52.1194H13.9532C13.9932 53.4394 14.4532 53.9794 15.5032 53.9794C16.0032 53.9794 16.4032 53.8794 16.6932 53.7794L16.7032 53.7694ZM13.9432 50.9094H15.7632V50.7594C15.7632 49.4994 15.5932 48.7694 14.9132 48.7694C14.2732 48.7694 13.9932 49.3394 13.9432 50.9094Z" fill="white"/>
<path d="M19.9332 47.5894C20.1532 47.5894 20.2232 47.6594 20.2432 47.8794L20.2732 48.6594C20.4232 48.1094 20.9132 47.4994 21.6632 47.4994C21.9032 47.4994 21.9832 47.5794 21.9832 47.8094V49.0994C21.9832 49.2994 21.9032 49.3694 21.7332 49.3694C21.6232 49.3694 21.5132 49.3594 21.3432 49.3594C20.6732 49.3494 20.2832 50.0594 20.2832 51.0694V54.9394C20.2832 55.1394 20.2032 55.2194 20.0032 55.2194H18.9932C18.7832 55.2194 18.7032 55.1394 18.7032 54.9394V47.8794C18.7032 47.6794 18.7832 47.5994 18.9932 47.5994H19.9432L19.9332 47.5894Z" fill="white"/>
<path d="M28.0832 54.3194C28.0832 56.0694 27.1832 56.8694 25.3932 56.8694C24.6632 56.8694 24.1032 56.7894 23.7132 56.6494C23.5432 56.5794 23.4432 56.4994 23.4432 56.2894V55.5294C23.4432 55.3194 23.5732 55.2494 23.7932 55.3094C24.0832 55.3894 24.6732 55.5194 25.2032 55.5194C26.0732 55.5194 26.5232 55.1594 26.5232 54.2594V53.6694C26.3132 54.1694 25.8232 54.5094 25.0432 54.5094C23.5832 54.5094 22.9732 53.4194 22.9732 51.0094C22.9732 48.5994 23.6632 47.4894 25.0932 47.4894C25.8632 47.4894 26.3932 47.9494 26.5732 48.3994L26.6032 47.8494C26.6132 47.6494 26.7132 47.5994 26.9232 47.5994H27.7932C28.0032 47.5994 28.0832 47.6794 28.0832 47.8794V54.3194ZM25.5232 48.8294C24.8332 48.8294 24.5832 49.5294 24.5832 50.9994C24.5832 52.4694 24.8232 53.1594 25.5232 53.1594C26.1832 53.1594 26.5432 52.4494 26.5432 50.9994C26.5432 49.5494 26.1832 48.8294 25.5232 48.8294Z" fill="white"/>
<path d="M31.2632 54.9294C31.2632 55.1294 31.1832 55.2094 30.9832 55.2094H29.9732C29.7632 55.2094 29.6832 55.1294 29.6832 54.9294V45.6293C29.6832 45.4293 29.7632 45.3394 29.9732 45.3394H30.9832C31.1832 45.3394 31.2632 45.4393 31.2632 45.6293V54.9294Z" fill="white"/>
<path d="M37.0432 53.7694C37.2232 53.7094 37.3832 53.7994 37.3832 54.0094V54.7694C37.3832 54.9894 37.2732 55.0794 37.1032 55.1294C36.7532 55.2394 36.2332 55.3294 35.7132 55.3294C33.6132 55.3294 32.7332 54.1994 32.7332 51.3794C32.7332 48.5594 33.5332 47.4894 35.2832 47.4894C37.0332 47.4894 37.6332 48.7094 37.6332 50.9794V51.8094C37.6332 52.0494 37.5332 52.1194 37.2932 52.1194H34.2932C34.3332 53.4394 34.7932 53.9794 35.8432 53.9794C36.3432 53.9794 36.7432 53.8794 37.0332 53.7794L37.0432 53.7694ZM34.2832 50.9094H36.1032V50.7594C36.1032 49.4994 35.9332 48.7694 35.2532 48.7694C34.6132 48.7694 34.3332 49.3394 34.2832 50.9094Z" fill="white"/>
<path d="M40.7032 46.5694C40.7032 46.7694 40.6032 46.8494 40.4132 46.8494H39.3532C39.1532 46.8494 39.0632 46.7694 39.0632 46.5694V45.6694C39.0632 45.4594 39.1632 45.3794 39.3532 45.3794H40.4132C40.6132 45.3794 40.7032 45.4594 40.7032 45.6694V46.5694ZM40.6732 54.9294C40.6732 55.1294 40.5732 55.2094 40.3832 55.2094H39.3732C39.1732 55.2094 39.0832 55.1294 39.0832 54.9294V47.8694C39.0832 47.6694 39.1832 47.5894 39.3732 47.5894H40.3832C40.5832 47.5894 40.6732 47.6694 40.6732 47.8694V54.9294Z" fill="white"/>
<path d="M44.6732 47.4793C45.1032 47.4793 45.5932 47.5794 45.7832 47.6294C45.9832 47.6994 46.0532 47.7593 46.0532 47.9493V48.8293C46.0532 49.0093 45.9532 49.0793 45.7432 49.0393C45.5732 48.9993 45.3132 48.9394 44.9832 48.9394C44.0432 48.9394 43.7232 49.5394 43.7232 51.3794C43.7232 53.2194 44.0632 53.8394 45.0132 53.8394C45.3532 53.8394 45.6132 53.7693 45.7832 53.7293C45.9932 53.6693 46.0932 53.7594 46.0932 53.9394V54.8194C46.0932 55.0194 46.0232 55.0893 45.8432 55.1393C45.6632 55.2093 45.1532 55.3094 44.7132 55.3094C42.9632 55.3094 42.1232 54.1494 42.1232 51.3694C42.1232 48.5894 42.9532 47.4594 44.6832 47.4594L44.6732 47.4793Z" fill="white"/>
<path d="M52.3932 54.9294C52.3932 55.1294 52.3132 55.2094 52.1132 55.2094H51.1032C50.8932 55.2094 50.8132 55.1294 50.8132 54.9294V50.1494C50.8132 49.4094 50.6432 48.9893 50.0732 48.9893C49.3632 48.9893 49.0232 49.5594 49.0232 50.5594V54.9294C49.0232 55.1294 48.9432 55.2094 48.7432 55.2094H47.7332C47.5232 55.2094 47.4432 55.1294 47.4432 54.9294V45.6293C47.4432 45.4293 47.5232 45.3394 47.7332 45.3394H48.7432C48.9432 45.3394 49.0232 45.4393 49.0232 45.6293V48.2893C49.2632 47.9093 49.7532 47.4793 50.5932 47.4793C51.8132 47.4793 52.4032 48.3993 52.4032 49.7893V54.9294H52.3932Z" fill="white"/>
<path d="M55.4532 55.3194C54.8232 55.3194 54.2232 55.2194 53.9232 55.1194C53.7532 55.0794 53.6732 55.0094 53.6732 54.8094V53.9294C53.6732 53.7494 53.7832 53.6593 53.9932 53.7293C54.2132 53.7993 54.7032 53.8994 55.2532 53.8994C55.8732 53.8994 56.3032 53.6894 56.3032 53.0994C56.3032 52.5094 55.8732 52.2693 55.1232 51.8293C54.2432 51.3093 53.6432 50.8794 53.6432 49.4994C53.6432 48.1194 54.3132 47.4694 55.9432 47.4694C56.4932 47.4694 57.0232 47.5694 57.2832 47.6194C57.4632 47.6594 57.5332 47.7294 57.5332 47.9294V48.7794C57.5332 48.9594 57.4232 49.0594 57.2232 48.9994C57.0532 48.9594 56.6532 48.8593 56.2132 48.8593C55.5132 48.8593 55.1932 49.0094 55.1932 49.5694C55.1932 50.0694 55.6232 50.3493 56.3932 50.7893C57.3332 51.3393 57.8532 51.9093 57.8532 53.1393C57.8532 54.7593 56.8832 55.2993 55.4432 55.2993L55.4532 55.3194Z" fill="white"/>
<path d="M60.6932 48.3894C60.8732 47.9294 61.4732 47.4794 62.2332 47.4794C63.7032 47.4794 64.4732 48.5694 64.4732 51.3994C64.4732 54.2294 63.7332 55.3194 62.2632 55.3194C61.4932 55.3194 60.9232 54.9394 60.7132 54.4794V56.4694C60.7132 56.6694 60.6332 56.7494 60.4332 56.7494H59.4232C59.2132 56.7494 59.1332 56.6694 59.1332 56.4694V47.8694C59.1332 47.6694 59.2132 47.5894 59.4232 47.5894H60.3432C60.5532 47.5894 60.6532 47.6494 60.6632 47.8394L60.6932 48.3894ZM61.8232 53.9194C62.5632 53.9194 62.8432 53.2294 62.8432 51.3994C62.8432 49.5694 62.5632 48.8794 61.8232 48.8794C61.0832 48.8794 60.6932 49.5894 60.6932 51.3994C60.6932 53.2094 61.1032 53.9194 61.8232 53.9194Z" fill="white"/>
<path d="M65.7332 51.3994C65.7332 48.6294 66.5432 47.4794 68.3532 47.4794C70.1632 47.4794 70.9832 48.6294 70.9832 51.3994C70.9832 54.1694 70.1532 55.3194 68.3532 55.3194C66.5532 55.3194 65.7332 54.1594 65.7332 51.3994ZM69.3632 51.3994C69.3632 49.5394 69.0932 48.8594 68.3532 48.8594C67.6132 48.8594 67.3432 49.5294 67.3432 51.3994C67.3432 53.2694 67.6232 53.9394 68.3532 53.9394C69.0832 53.9394 69.3632 53.2694 69.3632 51.3994Z" fill="white"/>
<path d="M73.6232 47.5894C73.8432 47.5894 73.9132 47.6594 73.9332 47.8794L73.9632 48.6594C74.1132 48.1094 74.6032 47.4994 75.3532 47.4994C75.5932 47.4994 75.6732 47.5794 75.6732 47.8094V49.0994C75.6732 49.2994 75.5932 49.3694 75.4232 49.3694C75.3132 49.3694 75.2032 49.3594 75.0332 49.3594C74.3632 49.3494 73.9732 50.0594 73.9732 51.0694V54.9394C73.9732 55.1394 73.8932 55.2194 73.6932 55.2194H72.6832C72.4732 55.2194 72.3932 55.1394 72.3932 54.9394V47.8794C72.3932 47.6794 72.4732 47.5994 72.6832 47.5994H73.6332L73.6232 47.5894Z" fill="white"/>
<path d="M78.9632 49.3293V52.8494C78.9632 53.5794 79.0632 53.7693 79.5532 53.7693C79.6532 53.7693 79.7632 53.7593 79.8232 53.7393C80.0232 53.7093 80.1132 53.8193 80.1132 54.0093V54.8893C80.1132 55.0593 80.0432 55.1393 79.8732 55.1993C79.6932 55.2593 79.4132 55.2794 79.1732 55.2794C77.8532 55.2794 77.4132 54.7794 77.4132 53.1194V49.3194H76.9532C76.7532 49.3194 76.6732 49.2393 76.6732 49.0393V48.0994C76.6732 47.8994 76.7532 47.8194 76.9532 47.8194H77.4332V46.2494C77.4332 46.0394 77.5132 45.9594 77.7132 45.9594H78.6832C78.8932 45.9594 78.9732 46.0394 78.9732 46.2494V47.8194H79.8232C80.0232 47.8194 80.1032 47.8994 80.1032 48.0994V49.0193C80.1032 49.2193 80.0232 49.3094 79.8232 49.3094H78.9732L78.9632 49.3293Z" fill="white"/>
<path d="M85.9931 54.9294C85.9931 55.1294 85.9131 55.2094 85.7132 55.2094H84.9131C84.7031 55.2094 84.6031 55.1394 84.5931 54.9594L84.5631 54.4094C84.3231 54.8594 83.8231 55.2894 82.9831 55.2894C81.9031 55.2894 81.2231 54.5094 81.2231 53.0494C81.2231 50.9594 82.5231 50.5294 84.4831 50.4894V49.8694C84.4831 49.1694 84.2131 48.8694 83.5131 48.8694C82.8731 48.8694 82.3031 49.0694 82.0131 49.1494C81.8331 49.2094 81.6731 49.1394 81.6731 48.9294V48.0794C81.6731 47.8994 81.7531 47.8094 81.9131 47.7594C82.3231 47.6194 83.0931 47.4794 83.7031 47.4794C85.3731 47.4794 85.9831 48.1694 85.9831 49.6894V54.9294H85.9931ZM84.4831 51.5494C83.3931 51.5894 82.7331 51.7694 82.7331 52.9694C82.7331 53.6094 82.9331 54.0194 83.4931 54.0194C84.1531 54.0194 84.4831 53.3794 84.4831 52.5194V51.5494Z" fill="white"/>
<path d="M89.1532 54.9294C89.1532 55.1294 89.0732 55.2094 88.8732 55.2094H87.8632C87.6532 55.2094 87.5732 55.1294 87.5732 54.9294V45.6293C87.5732 45.4293 87.6532 45.3394 87.8632 45.3394H88.8732C89.0732 45.3394 89.1532 45.4393 89.1532 45.6293V54.9294Z" fill="white"/>
<path d="M42.7431 23.7293C43.1931 23.6493 43.4231 23.8193 43.4231 24.2393V26.0493C43.4231 26.5193 43.2331 26.6693 42.8431 26.7593C42.3531 26.8693 41.6031 26.9693 40.9031 26.9693C37.3431 26.9693 36.0131 25.7693 36.0131 20.0593C36.0131 14.3493 37.3131 13.2693 40.8431 13.2693C41.4831 13.2693 42.1931 13.3593 42.7231 13.4593C43.1331 13.5193 43.3231 13.7093 43.3231 14.1693V15.9993C43.3231 16.4093 43.0931 16.5793 42.6431 16.5093C42.3831 16.4493 41.9431 16.3993 41.5331 16.3993C39.8631 16.3993 39.5231 16.9593 39.5231 20.0693C39.5231 23.1793 39.9031 23.8493 41.5931 23.8493C42.0431 23.8493 42.4731 23.7893 42.7431 23.7393V23.7293Z" fill="#008D36"/>
<path d="M53.3231 20.1193C53.3231 25.7593 51.8331 26.9693 48.8831 26.9693C45.9331 26.9693 44.4431 25.7693 44.4431 20.1193C44.4431 14.4693 45.9331 13.2693 48.8831 13.2693C51.8331 13.2693 53.3231 14.4693 53.3231 20.1193ZM49.8031 20.1193C49.8031 16.8093 49.6331 16.3593 48.8831 16.3593C48.1331 16.3593 47.9631 16.8093 47.9631 20.1193C47.9631 23.4293 48.1331 23.8793 48.8831 23.8793C49.6331 23.8793 49.8031 23.4293 49.8031 20.1193Z" fill="#008D36"/>
<path d="M57.2131 16.3593C57.2131 16.5793 57.0831 16.6593 56.8731 16.6593H55.6531C55.4331 16.6593 55.3431 16.4793 55.3131 16.1993C55.2931 16.0293 55.2931 15.7993 55.2931 15.6293C55.2931 14.0093 56.1431 13.2693 57.7131 13.2693C59.5031 13.2693 60.1931 14.2593 60.1931 15.5693C60.1931 17.2893 59.0231 18.7993 58.0131 19.6793H59.8531C60.0831 19.6793 60.1831 19.7793 60.1831 20.0093V21.1793C60.1831 21.4093 60.0831 21.5093 59.8531 21.5093H55.6131C55.3831 21.5093 55.2831 21.4093 55.2831 21.1793V20.2493C55.2831 20.0093 55.3831 19.9093 55.5431 19.7893C56.7031 18.9593 58.0631 17.2693 58.0631 15.7293C58.0631 15.2993 57.9731 15.0693 57.6031 15.0693C57.2131 15.0693 57.1531 15.4293 57.1531 15.6993C57.1631 15.9593 57.2231 16.1393 57.2231 16.3393L57.2131 16.3593Z" fill="#008D36"/>
<path d="M27.4931 37.6793C27.4931 37.9193 27.3631 38.0493 27.1231 38.0493H25.9431C25.6831 38.0493 25.5431 37.9693 25.4531 37.7393L24.1431 34.4893V37.6793C24.1431 37.9193 24.0131 38.0493 23.7731 38.0493H22.4631C22.2231 38.0493 22.0931 37.9193 22.0931 37.6793V30.2793C22.0931 30.0393 22.2231 29.9093 22.4631 29.9093H23.6431C23.9031 29.9093 24.0431 29.9893 24.1331 30.2193L25.4431 33.4693V30.2793C25.4431 30.0393 25.5731 29.9093 25.8131 29.9093H27.1231C27.3631 29.9093 27.4931 30.0393 27.4931 30.2793V37.6793Z" fill="#008D36"/>
<path d="M30.6432 34.8393V36.1193H32.5932C32.8332 36.1193 32.9632 36.2493 32.9632 36.4893V37.6793C32.9632 37.9193 32.8332 38.0493 32.5932 38.0493H28.9132C28.6732 38.0493 28.5432 37.9193 28.5432 37.6793V30.2793C28.5432 30.0393 28.6732 29.9093 28.9132 29.9093H32.5432C32.7832 29.9093 32.9132 30.0393 32.9132 30.2793V31.4793C32.9132 31.7193 32.7832 31.8493 32.5432 31.8493H30.6332V32.9893H32.4232C32.6632 32.9893 32.7932 33.1193 32.7932 33.3593V34.4893C32.7932 34.7293 32.6632 34.8593 32.4232 34.8593H30.6332L30.6432 34.8393Z" fill="#008D36"/>
<path d="M33.8131 35.7393V30.2793C33.8131 30.0393 33.9431 29.9093 34.1831 29.9093H35.5631C35.8031 29.9093 35.9331 30.0393 35.9331 30.2793V35.4393C35.9331 36.0393 36.0431 36.2293 36.4131 36.2293C36.7831 36.2293 36.8931 36.0293 36.8931 35.4393V30.2793C36.8931 30.0393 37.0231 29.9093 37.2631 29.9093H38.6431C38.8831 29.9093 39.0131 30.0393 39.0131 30.2793V35.7393C39.0131 37.4993 38.1931 38.1593 36.4131 38.1593C34.6331 38.1593 33.8131 37.4893 33.8131 35.7393Z" fill="#008D36"/>
<path d="M39.8231 30.2793C39.8231 30.0393 39.9531 29.9093 40.1931 29.9093H43.9131C44.1531 29.9093 44.2831 30.0393 44.2831 30.2793V31.4793C44.2831 31.7193 44.1531 31.8493 43.9131 31.8493H43.1131V37.6893C43.1131 37.9293 42.9831 38.0593 42.7431 38.0593H41.3631C41.1231 38.0593 40.9931 37.9293 40.9931 37.6893V31.8493H40.1931C39.9531 31.8493 39.8231 31.7193 39.8231 31.4793V30.2793Z" fill="#008D36"/>
<path d="M47.5431 29.9193C49.6431 29.9193 50.4131 30.5893 50.4131 32.8493C50.4131 34.1793 50.0431 34.9293 49.2831 35.2993L50.3131 37.5993C50.4331 37.8493 50.3831 38.0593 50.0731 38.0593H48.6731C48.3731 38.0593 48.2731 37.9893 48.1631 37.7393L47.3231 35.6693H47.2131V37.6893C47.2131 37.9293 47.0831 38.0593 46.8431 38.0593H45.4631C45.2231 38.0593 45.0931 37.9293 45.0931 37.6893V30.2893C45.0931 30.0493 45.2231 29.9193 45.4631 29.9193H47.5331H47.5431ZM47.5431 33.8693C48.1631 33.8693 48.2631 33.6093 48.2631 32.8493C48.2631 32.0893 48.1631 31.8293 47.5431 31.8293H47.2231V33.8693H47.5431Z" fill="#008D36"/>
<path d="M54.9731 29.9193C55.3431 29.9193 55.4531 30.0793 55.5031 30.3193L56.7431 37.6493C56.7931 37.8893 56.6731 38.0493 56.4231 38.0493H55.0131C54.7531 38.0493 54.6531 37.9193 54.6231 37.6893L54.4731 36.6893H53.3031L53.1531 37.6893C53.1231 37.9193 53.0231 38.0493 52.7631 38.0493H51.3531C51.1031 38.0493 50.9831 37.8893 51.0331 37.6493L52.2731 30.3193C52.3231 30.0793 52.4331 29.9193 52.8031 29.9193H54.9831H54.9731ZM54.3331 34.8593L53.9031 31.9593H53.8531L53.4231 34.8593H54.3231H54.3331Z" fill="#008D36"/>
<path d="M59.6531 36.0993H61.1231C61.3631 36.0993 61.4931 36.2293 61.4931 36.4693V37.6893C61.4931 37.9293 61.3631 38.0593 61.1231 38.0593H57.9031C57.6631 38.0593 57.5331 37.9293 57.5331 37.6893V30.2893C57.5331 30.0493 57.6631 29.9193 57.9031 29.9193H59.2831C59.5231 29.9193 59.6531 30.0493 59.6531 30.2893V36.0993Z" fill="#008D36"/>
<path d="M64.5332 34.8393V36.1193H66.4832C66.7232 36.1193 66.8532 36.2493 66.8532 36.4893V37.6793C66.8532 37.9193 66.7232 38.0493 66.4832 38.0493H62.8032C62.5632 38.0493 62.4332 37.9193 62.4332 37.6793V30.2793C62.4332 30.0393 62.5632 29.9093 62.8032 29.9093H66.4332C66.6732 29.9093 66.8032 30.0393 66.8032 30.2793V31.4793C66.8032 31.7193 66.6732 31.8493 66.4332 31.8493H64.5232V32.9893H66.3132C66.5532 32.9893 66.6832 33.1193 66.6832 33.3593V34.4893C66.6832 34.7293 66.5532 34.8593 66.3132 34.8593H64.5232L64.5332 34.8393Z" fill="#008D36"/>
<path d="M69.6932 38.1593C69.1332 38.1593 68.3932 38.0793 68.0832 37.9893C67.7932 37.9093 67.6832 37.8293 67.6832 37.5393V36.4293C67.6832 36.1793 67.8332 36.0493 68.1532 36.1493C68.3732 36.2193 68.7632 36.2793 69.1132 36.2793C69.6632 36.2793 70.0332 36.1793 70.0332 35.7593C70.0332 35.4593 69.9432 35.2993 69.1232 34.7293C68.3632 34.1893 67.6832 33.5093 67.6832 32.0993C67.6832 30.4693 68.3532 29.7993 70.2032 29.7993C70.7232 29.7993 71.2232 29.8493 71.5032 29.9193C71.7632 29.9793 71.8832 30.0793 71.8832 30.3693V31.5193C71.8832 31.7693 71.7232 31.8593 71.4132 31.7993C71.2732 31.7693 70.8632 31.6993 70.5332 31.6993C70.0632 31.6993 69.9032 31.8293 69.9032 32.1593C69.9032 32.5893 70.3532 32.9893 70.7732 33.3093C71.7732 34.0693 72.2432 34.6493 72.2432 35.8493C72.2432 37.5393 71.0432 38.1793 69.6932 38.1793V38.1593Z" fill="#008D36"/>
<path d="M37.6731 75.7093L35.9831 76.5193C35.4031 76.7993 34.7131 76.5793 34.3931 76.0193C34.0531 75.4093 34.2931 74.6493 34.9131 74.3393C37.3531 73.1193 39.7831 71.9593 42.4131 71.2693C47.0631 70.0493 51.4631 70.7592 55.6931 72.8892C55.9031 72.9892 56.1131 73.0893 56.3331 73.1193C50.3231 68.7993 43.9631 67.4593 37.0631 71.0193C36.9831 67.3893 38.3831 65.6693 40.9131 64.6093C44.4931 63.1093 47.9331 63.5293 51.1831 65.5593C54.2431 67.4693 57.2431 69.4493 60.3131 71.3493C61.7131 72.2193 63.1731 72.9893 64.9531 73.1493C64.0131 73.7793 63.0831 74.4392 62.1231 75.0392C58.5531 77.2392 54.8131 79.0393 50.6531 79.8293C47.4131 80.4393 44.2431 80.3393 41.2431 78.7993C39.8231 78.0693 38.5131 77.1793 37.6831 75.7093H37.6731Z" fill="#009640"/>
</svg>
