<svg width="18.197" height="59.731" fill="none" xmlns="http://www.w3.org/2000/svg" xmlns:svg="http://www.w3.org/2000/svg"><path fill-rule="evenodd" clip-rule="evenodd" d="M14.258 5.147C14.268 2.247 12.063.005 9.2 0 6.374 0 4.142 2.216 4.132 5.047c-.01 2.874 2.237 5.169 5.058 5.174 2.784 0 5.057-2.274 5.068-5.074zM0 16.084V34.22c.183.278.353.573.522.868.374.654.749 1.307 1.278 1.779.493.428 1.154.662 1.875.917.332.118.678.24 1.025.388v.774c0 1.554.005 3.108.01 4.662.012 3.814.023 7.628-.036 11.443-.037 2.331.742 3.942 3.01 4.679H10.5c2.284-.732 3.053-2.348 3.016-4.684-.06-3.8-.048-7.6-.036-11.399.004-1.548.01-3.096.01-4.643v-1.1c.138-.016.272-.029.403-.04.254-.025.495-.047.728-.092 1.931-.368 3.537-2.19 3.547-4.205.037-5.726.037-11.447.006-17.174-.011-1.984-1.616-3.763-3.643-3.894-1.603-.104-3.215-.1-4.826-.097-.669.001-1.337.003-2.005-.003l-.746-.006a49.56 49.56 0 0 0-2.438.016c-2.21.084-3.658 1.226-4.342 3.353-.022.078-.067.15-.113.22l-.061.1Z" fill="#2372B6"/></svg>