<svg width="273" height="75" viewBox="0 0 273 75" fill="none" xmlns="http://www.w3.org/2000/svg">
<g clip-path="url(#clip0_1_1310)">
<path d="M80.2499 24.2465L81.4181 17.4814H91.276L90.1077 24.2465H80.2499ZM85.3804 50.2995H75.9348L79.9199 27.217H89.4107L85.4269 50.2995H85.3804Z" fill="#293A7C"/>
<path d="M133.66 50.2995L135.625 38.9176C136.209 35.5363 135.178 34.0732 132.198 34.0732C130.455 34.0732 127.51 34.6677 125.498 35.1701C125.473 35.582 125.394 36.0386 125.331 36.4048L122.932 50.2995H113.441L115.406 38.9176C115.989 35.5363 115.003 34.0732 112.024 34.0732C110.236 34.0732 107.383 34.6677 105.324 35.1701L102.713 50.2995H93.2206L97.2061 27.217H105.001L104.962 28.7711C109.256 27.5371 113.41 26.5774 116.848 26.5774C119.188 26.5774 121.745 26.8972 123.549 28.4057C123.868 28.6794 123.974 28.8629 124.172 29.0455C128.847 27.72 133.401 26.5774 137.023 26.5774C139.681 26.5774 142.554 26.9429 144.354 28.9998C145.614 30.4625 146.158 32.8849 145.551 36.4048L143.152 50.2995H133.66Z" fill="#293A7C"/>
<path d="M170.438 34.0732C168.145 34.0732 165.117 34.622 162.593 35.1701L161.203 43.2152C162.804 43.763 164.767 44.0838 166.829 44.0838C172.01 44.0838 174.115 42.2556 174.675 39.0101C175.323 35.2619 173.418 34.0732 170.438 34.0732ZM149.029 58.7563L154.474 27.217H162.268L162.23 28.7711C166.033 27.72 170.677 26.5774 174.574 26.5774C177.326 26.5774 180.404 27.0798 182.456 28.9998C184.858 31.285 185.09 34.9875 184.442 38.735C183.598 43.6265 181.143 46.9631 177.51 48.8828C174.229 50.6193 170.644 50.939 166.975 50.939C164.637 50.939 162.202 50.7114 159.996 50.2081L158.521 58.7563H149.029Z" fill="#293A7C"/>
<path d="M188.178 50.2995L193.844 17.4814H203.335L197.668 50.2995H188.178Z" fill="#293A7C"/>
<path d="M221.909 32.0621C218.241 32.0621 216.411 32.8395 215.655 35.3537H226.935C227.231 32.8395 225.576 32.0621 221.909 32.0621ZM216.999 50.939C213.744 50.939 209.903 50.6193 207.492 48.3798C205.082 46.14 204.718 42.6669 205.398 38.735C205.989 35.3076 207.668 31.4222 211.427 29.0455C214.869 26.8972 218.913 26.5774 222.856 26.5774C226.478 26.5774 230.634 26.9429 233.12 28.9998C236.697 31.9252 236.002 35.9474 235.233 40.9298H214.692C214.435 43.489 216.424 44.1743 220.919 44.1743C224.769 44.1743 229.716 43.6716 233.717 43.0778L232.635 49.3401C227.596 50.1169 222.089 50.939 216.999 50.939Z" fill="#293A7C"/>
<path d="M257.396 33.3879C252.767 33.3879 250.604 34.7588 249.941 38.5989C249.255 42.5747 250.858 44.1743 255.534 44.1743C260.119 44.1743 262.29 42.758 262.946 38.964C263.632 34.9875 262.028 33.3879 257.396 33.3879ZM266.514 48.5624C263.211 50.4367 259.319 50.939 254.366 50.939C249.368 50.939 245.651 50.4367 242.995 48.5624C239.972 46.4148 239.478 42.8945 240.19 38.7814C240.899 34.6677 242.569 31.1024 246.38 28.9537C249.684 27.0798 253.576 26.5774 258.573 26.5774C263.524 26.5774 267.244 27.0798 269.9 28.9537C272.969 31.1024 273.416 34.622 272.704 38.735C271.996 42.8495 270.279 46.4148 266.514 48.5624Z" fill="#293A7C"/>
<path d="M53.61 30.9665C56.4941 32.6118 59.3778 34.2588 62.245 35.933C68.4738 39.5707 69.6482 44.8648 65.5749 50.8321C61.8246 56.3263 56.3086 59.1669 49.8337 59.2577C35.7863 59.4551 21.0377 59.2925 6.98737 59.2577C13.8078 68.7833 24.9777 75 37.6114 75C58.3839 75 75.2229 58.2111 75.2229 37.5013C75.2229 35.2704 75.0161 33.0892 74.6392 30.9665H53.61Z" fill="#57C8E2"/>
<path d="M37.6114 0.00260162C16.839 0.00260162 0 16.7911 0 37.5013C0 39.2792 0.130674 41.0258 0.371891 42.7369H23.9897C21.3393 41.2173 18.7275 39.7171 16.1203 38.2119C8.47561 33.7985 7.54011 27.3752 13.5689 20.927C17.5273 16.6931 22.5702 14.5701 28.2498 14.5119C41.2512 14.3787 54.2542 14.4136 67.2572 14.4388C60.3737 5.65569 49.6578 0.00260162 37.6114 0.00260162Z" fill="#3978C5"/>
<path d="M39.755 27.5012C44.3573 30.1391 48.9602 32.7753 53.5605 35.4162C54.3779 35.8849 55.2108 36.3324 55.9916 36.8565C58.475 38.5231 59.3105 40.8146 58.3318 43.638C56.9376 47.6607 53.8595 49.883 49.8888 50.9697C48.6633 51.3049 47.3436 51.4431 46.0663 51.4474C35.4567 51.4826 23.7278 51.4493 13.1178 51.4474C11.7009 51.447 11.5646 51.226 12.1503 49.9027C12.4542 49.2161 12.809 48.5499 13.0766 47.8502C13.4785 46.7983 14.2091 46.3894 15.3306 46.4006C18.6674 46.4331 34.0823 46.4006 38.3011 46.4006C38.6443 46.4006 38.9875 46.4006 39.5888 46.4006C39.2119 46.143 39.0413 46.0084 38.8548 45.9015C33.8444 43.0231 28.8296 40.1511 23.8208 37.2694C22.1557 36.3114 20.8315 35.0677 20.5035 33.0659C20.2606 31.5853 20.7764 30.0779 21.4631 28.7856C23.4882 24.9736 27.4717 23.1243 31.6408 22.4469C32.6277 22.2863 33.6464 22.2686 34.6509 22.2673C44.7256 22.2547 56.5551 22.2663 66.6302 22.2673C68.1099 22.2673 68.2557 22.4857 67.6653 23.83C67.3759 24.489 67.0674 25.14 66.8047 25.8095C66.3866 26.8745 65.6501 27.3127 64.4793 27.3081C57.1752 27.2798 48.1162 27.3081 40.8116 27.3081C40.4731 27.3081 40.1346 27.3081 39.7956 27.3081C39.7821 27.3726 39.7686 27.4371 39.755 27.5012Z" fill="#293A7C"/>
</g>
<defs>
<clipPath id="clip0_1_1310">
<rect width="273" height="75" fill="white"/>
</clipPath>
</defs>
</svg>
