<svg width="91" height="103" viewBox="0 0 91 103" fill="none" xmlns="http://www.w3.org/2000/svg">
<path d="M1.24316 30.7992V72.1292C1.24316 75.3292 2.95317 78.2792 5.71317 79.8792L41.5032 100.539C44.2732 102.139 47.6832 102.139 50.4532 100.539L86.2432 79.8792C89.0132 78.2792 90.7132 75.3292 90.7132 72.1292V30.7992C90.7132 27.5992 89.0032 24.6492 86.2432 23.0492L50.4532 2.38921C47.6832 0.789209 44.2732 0.789209 41.5032 2.38921L5.71317 23.0492C2.94317 24.6492 1.24316 27.5992 1.24316 30.7992Z" fill="white" stroke="#C6C6C6" stroke-width="0.54" stroke-miterlimit="10"/>
<path d="M8.66315 41.5392V30.0892C8.66315 29.9792 8.72315 29.8792 8.81315 29.8292L45.8332 8.45917C45.8332 8.45917 45.9331 8.41918 45.9831 8.41918C46.0331 8.41918 46.0831 8.42917 46.1331 8.45917L83.1531 29.8292C83.2431 29.8792 83.3032 29.9792 83.3032 30.0892V41.5392H87.3531V30.0892C87.3531 28.5392 86.5231 27.0892 85.1731 26.3192L48.1531 4.94918C46.8131 4.16918 45.1432 4.17918 43.8032 4.94918L6.78315 26.3192C5.44315 27.0992 4.60315 28.5392 4.60315 30.0892V41.5392H8.65314H8.66315Z" fill="#36A9E1"/>
<path d="M83.3132 68.5092V72.8292C83.3132 72.9392 83.2532 73.0392 83.1632 73.0892L46.1432 94.4592C46.0532 94.5092 45.9332 94.5092 45.8432 94.4592L8.82317 73.0892C8.73317 73.0392 8.67317 72.9392 8.67317 72.8292V68.5092H4.62317V72.8292C4.62317 74.3792 5.45317 75.8292 6.80317 76.5992L43.8232 97.9692C44.4932 98.3592 45.2432 98.5492 46.0032 98.5492C46.7632 98.5492 47.5132 98.3592 48.1832 97.9692L85.2032 76.5992C86.5432 75.8192 87.3832 74.3792 87.3832 72.8292V68.5092H83.3332H83.3132Z" fill="#36A9E1"/>
<path d="M90.6032 45.6091H1.38318V64.9091H90.6032V45.6091Z" fill="#1D71B8"/>
<path d="M11.7932 31.7693C11.7932 31.6093 11.8832 31.5193 12.0432 31.5193H15.3132C15.4632 31.5193 15.5532 31.6093 15.5532 31.7693V32.4893C15.5532 32.6493 15.4632 32.7393 15.3132 32.7393H14.3332V38.8993C14.3332 39.0493 14.2532 39.1393 14.0932 39.1393H13.2632C13.1032 39.1393 13.0132 39.0493 13.0132 38.8993V32.7393H12.0432C11.8832 32.7393 11.7932 32.6493 11.7932 32.4893V31.7693Z" fill="#3C3C3B"/>
<path d="M17.4732 32.4692C17.4732 32.6192 17.3932 32.6892 17.2432 32.6892H16.4232C16.2732 32.6892 16.1932 32.6292 16.1932 32.4692V31.7792C16.1932 31.6192 16.2732 31.5492 16.4232 31.5492H17.2432C17.3932 31.5492 17.4732 31.6092 17.4732 31.7792V32.4692ZM17.4532 38.9192C17.4532 39.0692 17.3732 39.1392 17.2232 39.1392H16.4432C16.2932 39.1392 16.2132 39.0692 16.2132 38.9192V33.4792C16.2132 33.3292 16.2932 33.2592 16.4432 33.2592H17.2232C17.3732 33.2592 17.4532 33.3192 17.4532 33.4792V38.9192Z" fill="#3C3C3B"/>
<path d="M21.5732 38.0192C21.7132 37.9792 21.8332 38.0392 21.8332 38.1992V38.7792C21.8332 38.9492 21.7432 39.0192 21.6132 39.0592C21.3432 39.1492 20.9432 39.2092 20.5432 39.2092C18.9232 39.2092 18.2432 38.3292 18.2432 36.1592C18.2432 33.9892 18.8632 33.1592 20.2132 33.1592C21.5632 33.1592 22.0232 34.0992 22.0232 35.8492V36.4892C22.0232 36.6692 21.9432 36.7292 21.7632 36.7292H19.4532C19.4832 37.7492 19.8432 38.1692 20.6532 38.1692C21.0432 38.1692 21.3432 38.0892 21.5732 38.0192ZM19.4432 35.8192H20.8432V35.6992C20.8432 34.7292 20.7132 34.1692 20.1832 34.1692C19.6832 34.1692 19.4732 34.6092 19.4332 35.8192H19.4432Z" fill="#3C3C3B"/>
<path d="M24.9331 33.4392C25.0831 33.4392 25.1531 33.4992 25.1531 33.6592V34.3692C25.1531 34.5192 25.0931 34.5992 24.9331 34.5992H24.2631V38.9192C24.2631 39.0692 24.2031 39.1392 24.0431 39.1392H23.2831C23.1231 39.1392 23.0531 39.0692 23.0531 38.9192V34.5992H22.6931C22.5431 34.5992 22.4731 34.5392 22.4731 34.3792V33.6592C22.4731 33.5092 22.5331 33.4392 22.6931 33.4392H23.0531V33.0292C23.0531 31.8392 23.4231 31.4592 24.3931 31.4592C24.6531 31.4592 24.8431 31.4892 24.9831 31.5392C25.0931 31.5792 25.1431 31.6492 25.1431 31.7692V32.3292C25.1431 32.4892 25.0831 32.5492 24.9231 32.5492C24.8831 32.5492 24.7631 32.5392 24.6931 32.5392C24.3331 32.5392 24.2431 32.6692 24.2431 33.1792V33.4492H24.9131L24.9331 33.4392Z" fill="#3C3C3B"/>
<path d="M27.0132 39.2192C26.5232 39.2192 26.0632 39.1392 25.8332 39.0692C25.7032 39.0392 25.6432 38.9792 25.6432 38.8292V38.1492C25.6432 38.0092 25.7332 37.9392 25.8932 37.9992C26.0632 38.0492 26.4432 38.1292 26.8632 38.1292C27.3432 38.1292 27.6732 37.9692 27.6732 37.5092C27.6732 37.0492 27.3432 36.8692 26.7632 36.5292C26.0832 36.1292 25.6132 35.7892 25.6132 34.7392C25.6132 33.6892 26.1331 33.1692 27.3831 33.1692C27.8031 33.1692 28.2132 33.2492 28.4232 33.2892C28.5632 33.3192 28.6132 33.3792 28.6132 33.5292V34.1892C28.6132 34.3292 28.5232 34.4092 28.3732 34.3592C28.2432 34.3292 27.9332 34.2492 27.5932 34.2492C27.0532 34.2492 26.8032 34.3692 26.8032 34.7992C26.8032 35.1892 27.1332 35.3992 27.7332 35.7392C28.4532 36.1592 28.8531 36.5992 28.8531 37.5592C28.8531 38.8092 28.1031 39.2192 26.9931 39.2192H27.0132Z" fill="#3C3C3B"/>
<path d="M30.9831 34.5993V37.3093C30.9831 37.8693 31.0631 38.0193 31.4331 38.0193C31.5131 38.0193 31.5931 38.0093 31.6431 37.9993C31.7931 37.9793 31.8731 38.0693 31.8731 38.2093V38.8893C31.8731 39.0193 31.8231 39.0793 31.6931 39.1293C31.5531 39.1693 31.3331 39.1893 31.1531 39.1893C30.1331 39.1893 29.7931 38.7993 29.7931 37.5293V34.5993H29.4331C29.2831 34.5993 29.2131 34.5393 29.2131 34.3793V33.6593C29.2131 33.5093 29.2731 33.4393 29.4331 33.4393H29.8031V32.2293C29.8031 32.0693 29.8631 31.9993 30.0231 31.9993H30.7731C30.9331 31.9993 31.0031 32.0693 31.0031 32.2293V33.4393H31.6631C31.8131 33.4393 31.8831 33.4993 31.8831 33.6593V34.3693C31.8831 34.5193 31.8231 34.5993 31.6631 34.5993H31.0031H30.9831Z" fill="#3C3C3B"/>
<path d="M33.7132 33.8692C33.8532 33.5092 34.3132 33.1692 34.9032 33.1692C36.0332 33.1692 36.6332 34.0092 36.6332 36.1992C36.6332 38.3892 36.0632 39.2192 34.9232 39.2192C34.3332 39.2192 33.8832 38.9292 33.7232 38.5692V40.0992C33.7232 40.2492 33.6632 40.3192 33.5032 40.3192H32.7232C32.5632 40.3192 32.4932 40.2492 32.4932 40.0992V33.4692C32.4932 33.3192 32.5532 33.2492 32.7232 33.2492H33.4332C33.5932 33.2492 33.6732 33.2892 33.6832 33.4392L33.7032 33.8592L33.7132 33.8692ZM34.5932 38.1392C35.1632 38.1392 35.3832 37.6092 35.3832 36.1992C35.3832 34.7892 35.1632 34.2492 34.5932 34.2492C34.0232 34.2492 33.7132 34.7992 33.7132 36.1992C33.7132 37.5992 34.0232 38.1392 34.5932 38.1392Z" fill="#3C3C3B"/>
<path d="M38.3532 33.2592C38.5232 33.2592 38.5832 33.3092 38.5932 33.4892L38.6132 34.0992C38.7332 33.6792 39.1132 33.1992 39.6832 33.1992C39.8632 33.1992 39.9332 33.2692 39.9332 33.4392V34.4292C39.9332 34.5792 39.8732 34.6392 39.7432 34.6392C39.6532 34.6392 39.5732 34.6292 39.4432 34.6292C38.9232 34.6192 38.6232 35.1692 38.6232 35.9492V38.9292C38.6232 39.0792 38.5632 39.1492 38.4032 39.1492H37.6232C37.4632 39.1492 37.3932 39.0792 37.3932 38.9292V33.4892C37.3932 33.3392 37.4532 33.2692 37.6232 33.2692H38.3532V33.2592Z" fill="#3C3C3B"/>
<path d="M43.6832 38.0192C43.8232 37.9792 43.9432 38.0392 43.9432 38.1992V38.7792C43.9432 38.9492 43.8532 39.0192 43.7232 39.0592C43.4532 39.1492 43.0532 39.2092 42.6532 39.2092C41.0332 39.2092 40.3531 38.3292 40.3531 36.1592C40.3531 33.9892 40.9732 33.1592 42.3232 33.1592C43.6732 33.1592 44.1432 34.0992 44.1432 35.8492V36.4892C44.1432 36.6692 44.0631 36.7292 43.8831 36.7292H41.5732C41.6032 37.7492 41.9632 38.1692 42.7732 38.1692C43.1632 38.1692 43.4632 38.0892 43.6932 38.0192H43.6832ZM41.5532 35.8192H42.9532V35.6992C42.9532 34.7292 42.8232 34.1692 42.2932 34.1692C41.7932 34.1692 41.5832 34.6092 41.5432 35.8192H41.5532Z" fill="#3C3C3B"/>
<path d="M46.1831 32.4692C46.1831 32.6192 46.1031 32.6892 45.9531 32.6892H45.1331C44.9831 32.6892 44.9031 32.6292 44.9031 32.4692V31.7792C44.9031 31.6192 44.9831 31.5492 45.1331 31.5492H45.9531C46.1031 31.5492 46.1831 31.6092 46.1831 31.7792V32.4692ZM46.1631 38.9192C46.1631 39.0692 46.0831 39.1392 45.9331 39.1392H45.1531C45.0031 39.1392 44.9231 39.0692 44.9231 38.9192V33.4792C44.9231 33.3292 45.0031 33.2592 45.1531 33.2592H45.9331C46.0831 33.2592 46.1631 33.3192 46.1631 33.4792V38.9192Z" fill="#3C3C3B"/>
<path d="M48.2431 39.2192C47.7531 39.2192 47.2931 39.1392 47.0631 39.0692C46.9331 39.0392 46.8731 38.9792 46.8731 38.8292V38.1492C46.8731 38.0092 46.9631 37.9392 47.1231 37.9992C47.2931 38.0492 47.6731 38.1292 48.0931 38.1292C48.5731 38.1292 48.9031 37.9692 48.9031 37.5092C48.9031 37.0492 48.5731 36.8692 47.9931 36.5292C47.3131 36.1292 46.8431 35.7892 46.8431 34.7392C46.8431 33.6892 47.3631 33.1692 48.6131 33.1692C49.0331 33.1692 49.4431 33.2492 49.6531 33.2892C49.7931 33.3192 49.8431 33.3792 49.8431 33.5292V34.1892C49.8431 34.3292 49.7531 34.4092 49.6031 34.3592C49.4731 34.3292 49.1631 34.2492 48.8231 34.2492C48.2831 34.2492 48.0331 34.3692 48.0331 34.7992C48.0331 35.1892 48.3631 35.3992 48.9631 35.7392C49.6831 36.1592 50.0831 36.5992 50.0831 37.5592C50.0831 38.8092 49.3331 39.2192 48.2231 39.2192H48.2431Z" fill="#3C3C3B"/>
<path d="M54.5932 38.4392C54.5932 39.7892 53.9032 40.4092 52.5232 40.4092C51.9632 40.4092 51.5332 40.3492 51.2232 40.2392C51.0932 40.1892 51.0132 40.1192 51.0132 39.9592V39.3792C51.0132 39.2192 51.1132 39.1592 51.2832 39.2092C51.5132 39.2692 51.9632 39.3692 52.3732 39.3692C53.0432 39.3692 53.3932 39.0892 53.3932 38.3992V37.9492C53.2332 38.3392 52.8532 38.5992 52.2432 38.5992C51.1232 38.5992 50.6432 37.7592 50.6432 35.8992C50.6432 34.0392 51.1732 33.1892 52.2732 33.1892C52.8632 33.1892 53.2732 33.5492 53.4232 33.8892L53.4432 33.4692C53.4532 33.3192 53.5332 33.2792 53.6932 33.2792H54.3632C54.5232 33.2792 54.5932 33.3392 54.5932 33.4992V38.4692V38.4392ZM52.6132 34.1992C52.0832 34.1992 51.8932 34.7392 51.8932 35.8692C51.8932 36.9992 52.0732 37.5292 52.6132 37.5292C53.1232 37.5292 53.4032 36.9792 53.4032 35.8692C53.4032 34.7592 53.1232 34.1992 52.6132 34.1992Z" fill="#3C3C3B"/>
<path d="M58.9532 38.9192C58.9532 39.0692 58.8932 39.1392 58.7332 39.1392H58.1132C57.9532 39.1392 57.8732 39.0892 57.8632 38.9492L57.8432 38.5292C57.6632 38.8792 57.2732 39.2092 56.6232 39.2092C55.7932 39.2092 55.2632 38.6092 55.2632 37.4792C55.2632 35.8692 56.2632 35.5392 57.7832 35.4992V35.0192C57.7832 34.4792 57.5732 34.2492 57.0332 34.2492C56.5332 34.2492 56.1032 34.3992 55.8732 34.4692C55.7332 34.5092 55.6132 34.4592 55.6132 34.2992V33.6392C55.6132 33.4992 55.6732 33.4292 55.7932 33.3892C56.1032 33.2792 56.7032 33.1692 57.1732 33.1692C58.4632 33.1692 58.9332 33.6992 58.9332 34.8792V38.9192H58.9532ZM57.7832 36.3192C56.9432 36.3492 56.4332 36.4892 56.4332 37.4092C56.4332 37.9092 56.5832 38.2192 57.0132 38.2192C57.5232 38.2192 57.7832 37.7192 57.7832 37.0592V36.3092V36.3192Z" fill="#3C3C3B"/>
<path d="M60.7732 33.2592C60.9432 33.2592 61.0032 33.3092 61.0132 33.4892L61.0332 34.0992C61.1532 33.6792 61.5332 33.1992 62.1032 33.1992C62.2832 33.1992 62.3532 33.2692 62.3532 33.4392V34.4292C62.3532 34.5792 62.2932 34.6392 62.1632 34.6392C62.0732 34.6392 61.9932 34.6292 61.8632 34.6292C61.3432 34.6192 61.0432 35.1692 61.0432 35.9492V38.9292C61.0432 39.0792 60.9832 39.1492 60.8232 39.1492H60.0432C59.8832 39.1492 59.8132 39.0792 59.8132 38.9292V33.4892C59.8132 33.3392 59.8732 33.2692 60.0432 33.2692H60.7732V33.2592Z" fill="#3C3C3B"/>
<path d="M66.2532 38.9192C66.2532 39.0692 66.1932 39.1392 66.0332 39.1392H65.4132C65.2532 39.1392 65.1732 39.0892 65.1632 38.9492L65.1432 38.5292C64.9632 38.8792 64.5732 39.2092 63.9232 39.2092C63.0932 39.2092 62.5632 38.6092 62.5632 37.4792C62.5632 35.8692 63.5632 35.5392 65.0832 35.4992V35.0192C65.0832 34.4792 64.8732 34.2492 64.3332 34.2492C63.8332 34.2492 63.4032 34.3992 63.1732 34.4692C63.0332 34.5092 62.9132 34.4592 62.9132 34.2992V33.6392C62.9132 33.4992 62.9732 33.4292 63.0932 33.3892C63.4032 33.2792 64.0032 33.1692 64.4732 33.1692C65.7632 33.1692 66.2332 33.6992 66.2332 34.8792V38.9192H66.2532ZM65.0832 36.3192C64.2432 36.3492 63.7332 36.4892 63.7332 37.4092C63.7332 37.9092 63.8832 38.2192 64.3132 38.2192C64.8232 38.2192 65.0832 37.7192 65.0832 37.0592V36.3092V36.3192Z" fill="#3C3C3B"/>
<path d="M70.9131 38.9192C70.9131 39.0692 70.8531 39.1392 70.6831 39.1392H69.9031C69.7531 39.1392 69.6831 39.0692 69.6831 38.9192V35.2392C69.6831 34.6692 69.5531 34.3392 69.1131 34.3392C68.5631 34.3392 68.3131 34.7792 68.3131 35.5492V38.9192C68.3131 39.0692 68.2531 39.1392 68.0931 39.1392H67.3131C67.1531 39.1392 67.0831 39.0692 67.0831 38.9192V33.4792C67.0831 33.3292 67.1431 33.2592 67.3131 33.2592H68.0231C68.1831 33.2592 68.2631 33.2992 68.2731 33.4492L68.2931 33.8392C68.4531 33.5292 68.8631 33.1692 69.5131 33.1692C70.4631 33.1692 70.8931 33.8792 70.8931 34.9492V38.9092L70.9131 38.9192Z" fill="#3C3C3B"/>
<path d="M73.2331 34.5993V37.3093C73.2331 37.8693 73.3131 38.0193 73.6831 38.0193C73.7631 38.0193 73.8431 38.0093 73.8931 37.9993C74.0431 37.9793 74.1231 38.0693 74.1231 38.2093V38.8893C74.1231 39.0193 74.0731 39.0793 73.9431 39.1293C73.8031 39.1693 73.5831 39.1893 73.4031 39.1893C72.3831 39.1893 72.0431 38.7993 72.0431 37.5293V34.5993H71.6831C71.5331 34.5993 71.4631 34.5393 71.4631 34.3793V33.6593C71.4631 33.5093 71.5231 33.4393 71.6831 33.4393H72.0531V32.2293C72.0531 32.0693 72.1131 31.9993 72.2731 31.9993H73.0231C73.1831 31.9993 73.2531 32.0693 73.2531 32.2293V33.4393H73.9131C74.0631 33.4393 74.1331 33.4993 74.1331 33.6593V34.3693C74.1331 34.5193 74.0731 34.5993 73.9131 34.5993H73.2531H73.2331Z" fill="#3C3C3B"/>
<path d="M76.0432 32.4692C76.0432 32.6192 75.9632 32.6892 75.8132 32.6892H74.9932C74.8432 32.6892 74.7632 32.6292 74.7632 32.4692V31.7792C74.7632 31.6192 74.8432 31.5492 74.9932 31.5492H75.8132C75.9632 31.5492 76.0432 31.6092 76.0432 31.7792V32.4692ZM76.0232 38.9192C76.0232 39.0692 75.9432 39.1392 75.7932 39.1392H75.0132C74.8632 39.1392 74.7832 39.0692 74.7832 38.9192V33.4792C74.7832 33.3292 74.8632 33.2592 75.0132 33.2592H75.7932C75.9432 33.2592 76.0232 33.3192 76.0232 33.4792V38.9192Z" fill="#3C3C3B"/>
<path d="M80.1331 38.0192C80.2731 37.9792 80.3932 38.0392 80.3932 38.1992V38.7792C80.3932 38.9492 80.3032 39.0192 80.1732 39.0592C79.9032 39.1492 79.5031 39.2092 79.1031 39.2092C77.4831 39.2092 76.8032 38.3292 76.8032 36.1592C76.8032 33.9892 77.4232 33.1592 78.7732 33.1592C80.1232 33.1592 80.5932 34.0992 80.5932 35.8492V36.4892C80.5932 36.6692 80.5132 36.7292 80.3332 36.7292H78.0232C78.0532 37.7492 78.4132 38.1692 79.2232 38.1692C79.6132 38.1692 79.9132 38.0892 80.1432 38.0192H80.1331ZM78.0032 35.8192H79.4032V35.6992C79.4032 34.7292 79.2731 34.1692 78.7431 34.1692C78.2431 34.1692 78.0331 34.6092 77.9931 35.8192H78.0032Z" fill="#3C3C3B"/>
<path d="M22.4232 75.6593L20.4332 76.7093L20.8132 74.4893L19.1932 72.9093L21.4232 72.5893L22.4232 70.5693L23.4232 72.5893L25.6532 72.9093L24.0332 74.4893L24.4132 76.7093L22.4232 75.6593Z" fill="#F39200"/>
<path d="M69.5532 75.6593L67.5632 76.7093L67.9432 74.4893L66.3232 72.9093L68.5532 72.5893L69.5532 70.5693L70.5532 72.5893L72.7732 72.9093L71.1632 74.4893L71.5432 76.7093L69.5532 75.6593Z" fill="#F39200"/>
<path d="M32.3431 77.0192L29.3331 78.5992L29.9031 75.2492L27.4731 72.8792L30.8331 72.3892L32.3431 69.3492L33.8431 72.3892L37.2031 72.8792L34.7731 75.2492L35.3431 78.5992L32.3431 77.0192Z" fill="#F39200"/>
<path d="M59.6331 77.0192L56.6331 78.5992L57.2031 75.2492L54.7731 72.8792L58.1331 72.3892L59.6331 69.3492L61.1431 72.3892L64.5031 72.8792L62.0631 75.2492L62.6431 78.5992L59.6331 77.0192Z" fill="#F39200"/>
<path d="M45.9832 78.7193L41.7832 80.9293L42.5932 76.2493L39.1932 72.9393L43.8832 72.2493L45.9832 67.9993L48.0832 72.2493L52.7832 72.9393L49.3832 76.2493L50.1832 80.9293L45.9832 78.7193Z" fill="#F39200"/>
<path d="M7.80315 55.5892V57.7092H9.82315C9.99315 57.7092 10.0631 57.7892 10.0631 57.9492V58.6992C10.0631 58.8492 9.98315 58.9392 9.82315 58.9392H6.72314C6.55314 58.9392 6.47314 58.8492 6.47314 58.6992V51.4392C6.47314 51.2692 6.56314 51.1892 6.72314 51.1892H9.79314C9.94314 51.1892 10.0331 51.2792 10.0331 51.4392V52.1792C10.0331 52.3492 9.94314 52.4292 9.79314 52.4292H7.80315V54.3892H9.69315C9.86315 54.3892 9.94315 54.4792 9.94315 54.6392V55.3392C9.94315 55.4892 9.85315 55.5792 9.69315 55.5792H7.80315V55.5892Z" fill="white"/>
<path d="M11.2131 51.4392C11.2131 51.2692 11.3031 51.1892 11.4631 51.1892H12.3131C12.4831 51.1892 12.5531 51.2792 12.5531 51.4392V58.6992C12.5531 58.8492 12.4731 58.9392 12.3131 58.9392H11.4631C11.2931 58.9392 11.2131 58.8492 11.2131 58.6992V51.4392Z" fill="white"/>
<path d="M18.3732 58.6992C18.3732 58.8492 18.2931 58.9392 18.1331 58.9392H17.3632C17.1832 58.9392 17.1032 58.8792 17.0332 58.7292L15.1632 54.1292V58.6992C15.1632 58.8492 15.0732 58.9392 14.9132 58.9392H14.1132C13.9432 58.9392 13.8632 58.8492 13.8632 58.6992V51.4392C13.8632 51.2692 13.9532 51.1892 14.1132 51.1892H14.8832C15.0632 51.1892 15.1532 51.2592 15.2132 51.3992L17.0832 56.0092V51.4392C17.0832 51.2692 17.1632 51.1892 17.3232 51.1892H18.1331C18.3031 51.1892 18.3732 51.2792 18.3732 51.4392V58.6992Z" fill="white"/>
<path d="M20.9432 55.7592V58.6892C20.9432 58.8592 20.8532 58.9392 20.6932 58.9392H19.8531C19.6831 58.9392 19.6031 58.8492 19.6031 58.6892V51.4492C19.6031 51.2692 19.6931 51.1892 19.8531 51.1892H22.8632C23.0332 51.1892 23.1132 51.2792 23.1132 51.4392V52.1792C23.1132 52.3492 23.0232 52.4292 22.8632 52.4292H20.9332V54.5292H22.7932C22.9632 54.5292 23.0332 54.6192 23.0332 54.7792V55.5092C23.0332 55.6792 22.9532 55.7592 22.7932 55.7592H20.9332H20.9432Z" fill="white"/>
<path d="M26.6932 51.1892C26.9332 51.1892 27.0132 51.2992 27.0432 51.4692L28.5332 58.6892C28.5632 58.8592 28.4932 58.9492 28.3132 58.9492H27.4532C27.2732 58.9492 27.2232 58.8592 27.1932 58.7192L26.8732 57.1992H25.2432L24.9232 58.7192C24.8932 58.8592 24.8232 58.9492 24.6632 58.9492H23.7932C23.6232 58.9492 23.5532 58.8492 23.5832 58.6892L25.0732 51.4692C25.1032 51.2992 25.1732 51.1892 25.4132 51.1892H26.7032H26.6932ZM26.7132 56.0092L26.0632 52.5892H26.0332L25.3932 56.0092H26.7132Z" fill="white"/>
<path d="M32.8132 57.7191C33.0032 57.6891 33.1032 57.7491 33.1032 57.9291V58.6091C33.1032 58.7991 33.0232 58.8591 32.8632 58.9091C32.6432 58.9791 32.2432 59.0391 31.8432 59.0391C30.0032 59.0391 29.2432 58.1791 29.2432 55.0491C29.2432 51.9191 29.9932 51.0991 31.8032 51.0991C32.1732 51.0991 32.5732 51.1691 32.7932 51.2191C32.9732 51.2491 33.0432 51.3191 33.0432 51.5091V52.1991C33.0432 52.3691 32.9432 52.4391 32.7532 52.4091C32.6132 52.3791 32.3032 52.3191 32.0232 52.3191C30.9332 52.3191 30.5932 52.8591 30.5932 55.0491C30.5932 57.2391 30.9432 57.8091 32.0532 57.8091C32.3532 57.8091 32.6532 57.7591 32.8032 57.7191H32.8132Z" fill="white"/>
<path d="M37.2031 55.6092H35.4931V58.6992C35.4931 58.8492 35.4131 58.9392 35.2531 58.9392H34.4031C34.2331 58.9392 34.1531 58.8492 34.1531 58.6992V51.4392C34.1531 51.2692 34.2431 51.1892 34.4031 51.1892H35.2531C35.4231 51.1892 35.4931 51.2792 35.4931 51.4392V54.3692H37.2031V51.4392C37.2031 51.2692 37.2831 51.1892 37.4431 51.1892H38.2931C38.4631 51.1892 38.5431 51.2792 38.5431 51.4392V58.6992C38.5431 58.8492 38.4531 58.9392 38.2931 58.9392H37.4431C37.2731 58.9392 37.2031 58.8492 37.2031 58.6992V55.6092Z" fill="white"/>
<path d="M43.2732 58.9392C43.0132 58.9392 42.8532 58.8092 42.8032 58.4992L41.6031 51.5392C41.5631 51.3092 41.6732 51.1592 41.9132 51.1592H43.3731C43.6231 51.1592 43.7231 51.2792 43.7431 51.4992L44.2131 55.5392L44.3231 56.8992H44.3631L44.4732 55.5392L44.9432 51.4992C44.9632 51.2792 45.0631 51.1592 45.3131 51.1592H46.7732C47.0132 51.1592 47.1232 51.3092 47.0832 51.5392L45.8831 58.4992C45.8231 58.8092 45.6732 58.9392 45.4132 58.9392H43.2531H43.2732Z" fill="white"/>
<path d="M49.8431 55.8692V57.0892H51.7131C51.9431 57.0892 52.0631 57.2092 52.0631 57.4392V58.5792C52.0631 58.8092 51.9431 58.9292 51.7131 58.9292H48.1931C47.9631 58.9292 47.8431 58.8092 47.8431 58.5792V51.4992C47.8431 51.2692 47.9631 51.1492 48.1931 51.1492H51.6731C51.9031 51.1492 52.0231 51.2692 52.0231 51.4992V52.6392C52.0231 52.8692 51.9031 52.9892 51.6731 52.9892H49.8431V54.0792H51.5631C51.7931 54.0792 51.9131 54.1992 51.9131 54.4292V55.5092C51.9131 55.7392 51.7931 55.8592 51.5631 55.8592H49.8431V55.8692Z" fill="white"/>
<path d="M55.3032 51.1492C57.3132 51.1492 58.0532 51.7892 58.0532 53.9492C58.0532 55.2292 57.7032 55.9392 56.9732 56.2892L57.9632 58.4892C58.0732 58.7292 58.0332 58.9292 57.7332 58.9292H56.3932C56.1032 58.9292 56.0132 58.8592 55.9132 58.6192L55.1132 56.6392H55.0032V58.5792C55.0032 58.8092 54.8832 58.9292 54.6532 58.9292H53.3332C53.1032 58.9292 52.9832 58.8092 52.9832 58.5792V51.4992C52.9832 51.2692 53.1032 51.1492 53.3332 51.1492H55.3132H55.3032ZM55.3032 54.9292C55.8932 54.9292 55.9931 54.6792 55.9931 53.9492C55.9931 53.2192 55.8932 52.9692 55.3032 52.9692H54.9931V54.9292H55.3032Z" fill="white"/>
<path d="M60.7031 59.0492C60.1631 59.0492 59.4631 58.9692 59.1631 58.8792C58.8931 58.7992 58.7831 58.7292 58.7831 58.4492V57.3792C58.7831 57.1392 58.9231 57.0192 59.2331 57.1192C59.4431 57.1892 59.8131 57.2392 60.1531 57.2392C60.6831 57.2392 61.0331 57.1392 61.0331 56.7392C61.0331 56.4492 60.9431 56.2992 60.1631 55.7492C59.4331 55.2292 58.7831 54.5792 58.7831 53.2292C58.7831 51.6692 59.4231 51.0292 61.1931 51.0292C61.6931 51.0292 62.1731 51.0692 62.4331 51.1392C62.6831 51.1892 62.7931 51.2892 62.7931 51.5692V52.6692C62.7931 52.9092 62.6431 52.9992 62.3431 52.9292C62.2131 52.8992 61.8131 52.8292 61.4931 52.8292C61.0431 52.8292 60.8831 52.9492 60.8831 53.2692C60.8831 53.6792 61.3131 54.0592 61.7231 54.3692C62.6831 55.0992 63.1331 55.6592 63.1331 56.7992C63.1331 58.4192 61.9931 59.0292 60.6931 59.0292L60.7031 59.0492Z" fill="white"/>
<path d="M69.0532 55.0492C69.0532 58.3492 68.1832 59.0492 66.4532 59.0492C64.7232 59.0492 63.8531 58.3492 63.8531 55.0492C63.8531 51.7492 64.7232 51.0492 66.4532 51.0492C68.1832 51.0492 69.0532 51.7492 69.0532 55.0492ZM66.9931 55.0492C66.9931 53.1092 66.8932 52.8492 66.4532 52.8492C66.0132 52.8492 65.9132 53.1092 65.9132 55.0492C65.9132 56.9892 66.0132 57.2492 66.4532 57.2492C66.8932 57.2492 66.9931 56.9892 66.9931 55.0492Z" fill="white"/>
<path d="M72.3232 51.1492C74.3332 51.1492 75.0732 51.7892 75.0732 53.9492C75.0732 55.2292 74.7232 55.9392 73.9932 56.2892L74.9832 58.4892C75.0932 58.7292 75.0532 58.9292 74.7532 58.9292H73.4132C73.1232 58.9292 73.0332 58.8592 72.9332 58.6192L72.1332 56.6392H72.0232V58.5792C72.0232 58.8092 71.9032 58.9292 71.6732 58.9292H70.3532C70.1232 58.9292 70.0032 58.8092 70.0032 58.5792V51.4992C70.0032 51.2692 70.1232 51.1492 70.3532 51.1492H72.3332H72.3232ZM72.3232 54.9292C72.9132 54.9292 73.0132 54.6792 73.0132 53.9492C73.0132 53.2192 72.9132 52.9692 72.3232 52.9692H72.0132V54.9292H72.3232Z" fill="white"/>
<path d="M80.5731 53.9892C80.8031 53.9892 80.9231 54.1092 80.9231 54.3392V58.1492C80.9231 58.3992 80.8031 58.5892 80.5731 58.7192C80.2231 58.9192 79.3831 59.0492 78.6731 59.0492C76.7731 59.0492 75.8431 58.3492 75.8431 55.0092C75.8431 51.6692 76.7331 51.0392 78.9831 51.0392C79.5931 51.0392 80.0531 51.1192 80.3631 51.2092C80.5831 51.2792 80.7031 51.3592 80.7031 51.6392V52.6992C80.7031 52.9792 80.5031 53.0292 80.2331 52.9792C80.0431 52.9492 79.6831 52.8792 79.2531 52.8792C78.1131 52.8792 77.9131 53.2092 77.9131 55.0292C77.9131 56.9692 78.1731 57.3292 78.9231 57.3292C79.0031 57.3292 79.1031 57.3192 79.1531 57.2992V55.6392H78.7931C78.5631 55.6392 78.4431 55.5192 78.4431 55.2892V54.3692C78.4431 54.1392 78.5631 54.0192 78.7931 54.0192H80.5831L80.5731 53.9892Z" fill="white"/>
<path d="M81.5632 51.4992C81.5632 51.2692 81.6832 51.1492 81.9132 51.1492H85.4732C85.7032 51.1492 85.8232 51.2692 85.8232 51.4992V52.6392C85.8232 52.8692 85.7032 52.9892 85.4732 52.9892H84.7032V58.5792C84.7032 58.8092 84.5832 58.9292 84.3532 58.9292H83.0332C82.8032 58.9292 82.6832 58.8092 82.6832 58.5792V52.9892H81.9132C81.6832 52.9892 81.5632 52.8692 81.5632 52.6392V51.4992Z" fill="white"/>
</svg>
